<?xml version="1.0" encoding="UTF-8"?>
<svg version="1.1" xmlns="http://www.w3.org/2000/svg" width="500" height="500">
<path d="M0 0 C1.22847656 -0.02900391 2.45695312 -0.05800781 3.72265625 -0.08789062 C11.15827207 -0.13969288 16.6566119 0.58111226 23.125 4.3125 C24.176875 4.869375 25.22875 5.42625 26.3125 6 C32.17242301 10.81815892 35.55934115 16.95390341 37.125 24.3125 C38.23875 24.27125 39.3525 24.23 40.5 24.1875 C44.125 24.3125 44.125 24.3125 46.125 26.3125 C46.35546875 28.40625 46.35546875 28.40625 46.3125 30.8125 C46.30605469 31.6065625 46.29960937 32.400625 46.29296875 33.21875 C46.125 35.3125 46.125 35.3125 45.125 37.3125 C43.805 37.3125 42.485 37.3125 41.125 37.3125 C41.455 38.3025 41.785 39.2925 42.125 40.3125 C42.21411173 42.35216481 42.24260045 44.39467286 42.23852539 46.4362793 C42.23841209 48.32790047 42.23841209 48.32790047 42.23829651 50.25773621 C42.23318989 51.63406412 42.22797389 53.01039163 42.22265625 54.38671875 C42.22079086 55.79490611 42.21936753 57.20309411 42.21836853 58.61128235 C42.21455288 62.3151733 42.20473072 66.01902495 42.19366455 69.72290039 C42.18342997 73.50341256 42.17886652 77.28393109 42.17382812 81.06445312 C42.1631076 88.48048665 42.1460426 95.89648782 42.125 103.3125 C44.105 103.9725 46.085 104.6325 48.125 105.3125 C49.25 111.9375 49.25 111.9375 48.125 115.3125 C14.795 115.3125 -18.535 115.3125 -52.875 115.3125 C-52.875 105.3125 -52.875 105.3125 -51.875 104.3125 C-49.895 104.3125 -47.915 104.3125 -45.875 104.3125 C-45.875 82.2025 -45.875 60.0925 -45.875 37.3125 C-47.195 37.3125 -48.515 37.3125 -49.875 37.3125 C-51.46852059 34.12545882 -51.2579977 30.78075691 -50.875 27.3125 C-49.75 25.3125 -49.75 25.3125 -47.875 24.3125 C-44.6875 24.125 -44.6875 24.125 -41.875 24.3125 C-41.64425781 23.66023438 -41.41351563 23.00796875 -41.17578125 22.3359375 C-39.10118206 16.77633968 -37.09065474 12.52815474 -32.875 8.3125 C-32.215 8.3125 -31.555 8.3125 -30.875 8.3125 C-30.875 7.6525 -30.875 6.9925 -30.875 6.3125 C-29.36115887 5.48704538 -27.83848161 4.67778913 -26.3125 3.875 C-25.04212891 3.19630859 -25.04212891 3.19630859 -23.74609375 2.50390625 C-16.29621657 -0.58753938 -7.93192773 0.0620328 0 0 Z M-31.875 43.3125 C-32.10052238 46.00412425 -32.1993329 48.55919744 -32.1875 51.25 C-32.20361328 51.97896484 -32.21972656 52.70792969 -32.23632812 53.45898438 C-32.25584051 57.61109131 -32.25584051 57.61109131 -30.5390625 61.2890625 C-27.86660444 62.93268694 -25.9321911 62.74924159 -22.875 62.3125 C-20.57390979 60.78369289 -20.57390979 60.78369289 -18.875 58.3125 C-18.27923947 54.91628105 -18.27923947 54.91628105 -18.4375 51.25 C-18.43878906 50.02152344 -18.44007812 48.79304688 -18.44140625 47.52734375 C-18.62673497 44.38291356 -18.62673497 44.38291356 -20.1484375 42.3984375 C-23.84106839 40.07592305 -28.77534956 40.21284956 -31.875 43.3125 Z M-8.5625 42.3984375 C-10.55039465 45.29745053 -10.30885538 47.77667963 -10.3125 51.25 C-10.33183594 52.47589844 -10.35117188 53.70179688 -10.37109375 54.96484375 C-10.13865368 58.35791752 -10.13865368 58.35791752 -8.0703125 60.73046875 C-4.92437768 62.99755701 -2.65685346 62.72506583 1.125 62.3125 C2.115 61.6525 3.105 60.9925 4.125 60.3125 C4.3458564 57.36185852 4.40560989 54.62881769 4.3125 51.6875 C4.29896484 50.88570312 4.28542969 50.08390625 4.27148438 49.2578125 C4.23609051 47.27575622 4.18228234 45.29404449 4.125 43.3125 C0.12630107 41.10662432 -4.41694527 39.73069626 -8.5625 42.3984375 Z M15.125 42.3125 C15.04430342 45.27137459 14.98465335 48.2280659 14.9375 51.1875 C14.91236328 52.02925781 14.88722656 52.87101562 14.86132812 53.73828125 C14.85166016 54.54394531 14.84199219 55.34960938 14.83203125 56.1796875 C14.8163208 56.92331543 14.80061035 57.66694336 14.78442383 58.43310547 C14.89681396 59.05330566 15.0092041 59.67350586 15.125 60.3125 C18.59498729 62.62582486 20.05009248 62.65207563 24.125 62.3125 C25.115 61.6525 26.105 60.9925 27.125 60.3125 C27.40070606 57.39535199 27.4972561 54.7238174 27.4375 51.8125 C27.44072266 51.02746094 27.44394531 50.24242187 27.44726562 49.43359375 C27.57907925 44.89656708 27.57907925 44.89656708 25.125 41.3125 C21.431493 41.11103598 18.64559568 41.13896811 15.125 42.3125 Z M-30.875 73.3125 C-32.35194068 76.26638136 -32.08430797 78.96411882 -32.125 82.25 C-32.15078125 83.49652344 -32.1765625 84.74304688 -32.203125 86.02734375 C-32.14912843 89.24725145 -32.14912843 89.24725145 -30.546875 91.234375 C-27.95740625 92.90421934 -25.87612003 92.62511667 -22.875 92.3125 C-19.54950628 90.59845603 -19.54950628 90.59845603 -19.1875 87.125 C-18.3989541 80.34159274 -18.3989541 80.34159274 -20 73.875 C-21.85659426 72.03282115 -21.85659426 72.03282115 -24.875 72 C-27.92230176 72.20813581 -27.92230176 72.20813581 -30.875 73.3125 Z M-8.49804688 73.94335938 C-10.2799111 77.00917684 -10.2179687 79.07604548 -10.16796875 82.609375 C-10.15830078 83.81464844 -10.14863281 85.01992188 -10.13867188 86.26171875 C-10.11353516 87.51597656 -10.08839844 88.77023437 -10.0625 90.0625 C-10.04896484 91.33222656 -10.03542969 92.60195313 -10.02148438 93.91015625 C-9.9861324 97.04469844 -9.93678248 100.17838545 -9.875 103.3125 C-6.99084117 104.75457941 -4.45778472 104.40644887 -1.25 104.375 C0.53277344 104.36146484 0.53277344 104.36146484 2.3515625 104.34765625 C3.26679688 104.33605469 4.18203125 104.32445312 5.125 104.3125 C5.23349626 94.24645765 5.1017249 84.34137177 4.125 74.3125 C3.465 74.3125 2.805 74.3125 2.125 74.3125 C2.125 73.6525 2.125 72.9925 2.125 72.3125 C0.68916999 72.20413547 -0.7490202 72.12673833 -2.1875 72.0625 C-2.98800781 72.01609375 -3.78851563 71.9696875 -4.61328125 71.921875 C-6.98304094 72.10662378 -6.98304094 72.10662378 -8.49804688 73.94335938 Z M19.125 72.3125 C19.125 72.9725 19.125 73.6325 19.125 74.3125 C17.805 74.3125 16.485 74.3125 15.125 74.3125 C15.07117894 76.93777189 15.03141687 79.56194713 15 82.1875 C14.98324219 82.93386719 14.96648437 83.68023437 14.94921875 84.44921875 C14.9316041 86.40444461 15.02179811 88.35992021 15.125 90.3125 C16.8814331 92.46955515 16.8814331 92.46955515 19 92.578125 C20.051875 92.57039063 20.051875 92.57039063 21.125 92.5625 C21.82625 92.56765625 22.5275 92.5728125 23.25 92.578125 C25.3685669 92.46955515 25.3685669 92.46955515 27.125 90.3125 C27.32352102 87.60327199 27.40339477 85.01946821 27.375 82.3125 C27.38273437 81.57515625 27.39046875 80.8378125 27.3984375 80.078125 C27.53508865 75.72828097 27.53508865 75.72828097 25.125 72.3125 C22.04152174 72.14568891 22.04152174 72.14568891 19.125 72.3125 Z " fill="#14639F" transform="translate(124.875,194.6875)"/>
<path d="M0 0 C2.625 0.375 2.625 0.375 5 1 C7.00792904 5.8426524 6.88152646 8.88714655 6 14 C5.76189321 18.45599855 6.00403265 22.64264283 7 27 C7 27.99 7 28.98 7 30 C6.34 30 5.68 30 5 30 C5 30.66 5 31.32 5 32 C1.80859375 32.4375 1.80859375 32.4375 -2 32 C-4.18264615 29.98455759 -5.50447561 27.58193612 -6.9375 25 C-7.33517578 24.33226562 -7.73285156 23.66453125 -8.14257812 22.9765625 C-9.11807693 21.33114283 -10.06220268 19.66719524 -11 18 C-11.66 22.62 -12.32 27.24 -13 32 C-16.13349732 33.04449911 -16.98968256 32.93423645 -20 32 C-20.07421454 28.06739056 -20.12863136 24.13505278 -20.16479492 20.2019043 C-20.18728333 18.20672299 -20.22540198 16.21173787 -20.26367188 14.21679688 C-20.27333984 12.96318359 -20.28300781 11.70957031 -20.29296875 10.41796875 C-20.3086792 9.26063232 -20.32438965 8.1032959 -20.34057617 6.91088867 C-20 4 -20 4 -18.6340332 2.13012695 C-17 1 -17 1 -14.5625 0.5 C-12 1 -12 1 -9.6875 3.3125 C-8 6 -8 6 -8 9 C-7.34 9 -6.68 9 -6 9 C-4 12 -4 12 -4 15 C-3.34 15 -2.68 15 -2 15 C-2.02320313 14.08476562 -2.04640625 13.16953125 -2.0703125 12.2265625 C-2.08835937 11.03804687 -2.10640625 9.84953125 -2.125 8.625 C-2.14820313 7.44164062 -2.17140625 6.25828125 -2.1953125 5.0390625 C-2 2 -2 2 0 0 Z " fill="#5287B2" transform="translate(301,218)"/>
<path d="M0 0 C2.9375 2.5 2.9375 2.5 5 5 C5.66 5.66 6.32 6.32 7 7 C7.73348927 13.36325754 7.89625017 19.67512477 4 25 C0.09673376 28.90326624 -3.13664542 30.77892403 -8.6875 31.4375 C-13.1407394 31.3471206 -15.91584562 29.79576551 -19.29296875 26.96484375 C-22.91103646 22.80034018 -24.16572905 17.99259312 -23.86328125 12.53125 C-23.00975962 7.83296581 -21.67209959 4.20131759 -18 1 C-11.93352601 -2.22814379 -6.35609771 -2.76459395 0 0 Z M-13.375 8.0625 C-15.42783478 11.77339365 -15.6724224 13.8160384 -15 18 C-13.10350449 21.14658666 -13.10350449 21.14658666 -10 23 C-6.31809464 23.26006315 -6.31809464 23.26006315 -3 22 C-0.99236832 19.06576908 -0.78100028 16.91925843 -1.1875 13.4375 C-1.26355469 12.67308594 -1.33960938 11.90867187 -1.41796875 11.12109375 C-2.11291087 8.58851946 -2.92978945 7.58980284 -5 6 C-8.90616378 5.33512106 -10.34960269 5.43518128 -13.375 8.0625 Z " fill="#417AAD" transform="translate(238,263)"/>
<path d="M0 0 C3.6578218 2.03993908 5.66946174 3.50419262 8 7 C8 7.99 8 8.98 8 10 C5.36 10 2.72 10 0 10 C0 9.34 0 8.68 0 8 C-2.92500278 8.09590173 -5.23310286 8.18300281 -8 9 C-10.32692724 11.82051787 -11.02880494 13.73669754 -10.9453125 17.3984375 C-10.7137939 19.62241924 -10.40547139 21.80166115 -10 24 C-5.28400182 24.92470553 -2.32734391 25.22923777 2 23 C2 22.34 2 21.68 2 21 C0.68 20.67 -0.64 20.34 -2 20 C-1.67 17.69 -1.34 15.38 -1 13 C2.63 13.66 6.26 14.32 10 15 C11.02379968 19.18051537 11.38355902 21.97051875 9.3125 25.75 C7.20407379 28.71319359 6.07298266 30.21924595 3 32 C-2.64512252 32.75495012 -9.65638161 33.44580411 -14.6875 30.3125 C-18.69449429 26.30550571 -21.13982604 22.36070102 -21.1875 16.6875 C-21.15806185 13.03716941 -20.69965373 10.2930791 -19 7 C-18.34 7 -17.68 7 -17 7 C-17 6.34 -17 5.68 -17 5 C-16.34 5 -15.68 5 -15 5 C-15 4.34 -15 3.68 -15 3 C-4.91596639 -0.76470588 -4.91596639 -0.76470588 0 0 Z " fill="#23679C" transform="translate(330,218)"/>
<path d="M0 0 C0.33 0.66 0.66 1.32 1 2 C1.66 2 2.32 2 3 2 C3 5.63 3 9.26 3 13 C5.64 12.67 8.28 12.34 11 12 C11.33 9.03 11.66 6.06 12 3 C14.31 2.01 16.62 1.02 19 0 C23.96215269 8.57099102 20.63155875 22.38000688 20 32 C16.71303767 32.79953138 15.28976808 33.09658936 12 32 C12 28.04 12 24.08 12 20 C9.03 20.33 6.06 20.66 3 21 C3 24.3 3 27.6 3 31 C1.02 31.66 -0.96 32.32 -3 33 C-4.47949219 31.88525391 -4.47949219 31.88525391 -6 30 C-6.35644531 27.19677734 -6.35644531 27.19677734 -6.328125 23.8359375 C-6.32296875 22.63195312 -6.3178125 21.42796875 -6.3125 20.1875 C-6.291875 18.929375 -6.27125 17.67125 -6.25 16.375 C-6.24484375 15.10914063 -6.2396875 13.84328125 -6.234375 12.5390625 C-6.15381494 3.15381494 -6.15381494 3.15381494 -5 2 C-3.33382885 1.95936168 -1.66611905 1.957279 0 2 C0 1.34 0 0.68 0 0 Z " fill="#105E9B" transform="translate(191,261)"/>
<path d="M0 0 C0 3.63 0 7.26 0 11 C3.3 11 6.6 11 10 11 C10 7.7 10 4.4 10 1 C14.625 -1.125 14.625 -1.125 18 0 C18.90168855 5.41013132 19.18295545 10.64427415 19.1875 16.125 C19.19974609 16.91003906 19.21199219 17.69507813 19.22460938 18.50390625 C19.23526085 22.71478852 19.18849389 26.26283767 17 30 C14 31 14 31 10 30 C10 26.37 10 22.74 10 19 C7.03 19 4.06 19 1 19 C0.96261719 19.69867188 0.92523438 20.39734375 0.88671875 21.1171875 C0.82097656 22.02726562 0.75523437 22.93734375 0.6875 23.875 C0.62949219 24.77992188 0.57148438 25.68484375 0.51171875 26.6171875 C0 29 0 29 -3 31 C-5.6875 30.625 -5.6875 30.625 -8 30 C-8.99531637 24.21768583 -9.15070368 18.61043795 -9.125 12.75 C-9.12886719 11.8528125 -9.13273438 10.955625 -9.13671875 10.03125 C-9.13542969 9.17015625 -9.13414062 8.3090625 -9.1328125 7.421875 C-9.13168457 6.64424805 -9.13055664 5.86662109 -9.12939453 5.06542969 C-9 3 -9 3 -8 0 C-2.25 -1.125 -2.25 -1.125 0 0 Z " fill="#2972A6" transform="translate(246,220)"/>
<path d="M0 0 C1.875 0.1875 1.875 0.1875 4 1 C5.78284814 4.29826907 6 6.1774751 6 10 C6.69867188 9.90460938 7.39734375 9.80921875 8.1171875 9.7109375 C9.02726562 9.60007813 9.93734375 9.48921875 10.875 9.375 C11.77992188 9.25898438 12.68484375 9.14296875 13.6171875 9.0234375 C14.40351563 9.01570312 15.18984375 9.00796875 16 9 C16.66 9.66 17.32 10.32 18 11 C17.9375 12.875 17.9375 12.875 17 15 C12.66666667 19 12.66666667 19 10 19 C10.33 19.886875 10.66 20.77375 11 21.6875 C11.91222143 24.70923347 12.18330958 26.88373706 12 30 C8.59582817 29.60416607 6.27032688 29.16345347 3.3125 27.375 C2.1678125 26.694375 2.1678125 26.694375 1 26 C0.01 26.33 -0.98 26.66 -2 27 C-2 27.66 -2 28.32 -2 29 C-4.31 29.33 -6.62 29.66 -9 30 C-8.76990234 29.02160156 -8.76990234 29.02160156 -8.53515625 28.0234375 C-8.03380611 25.21421935 -7.73726807 22.84767507 -8 20 C-9.95260483 17.38289614 -12.23070519 15.69886913 -15 14 C-14.67 12.68 -14.34 11.36 -14 10 C-10.7 10 -7.4 10 -4 10 C-3.566875 8.3603125 -3.566875 8.3603125 -3.125 6.6875 C-2 3 -2 3 0 0 Z " fill="#17619C" transform="translate(121,162)"/>
<path d="M0 0 C2.5 0.5625 2.5 0.5625 4.02856445 2.76147461 C6.44472927 7.36088708 8.00199118 12.22087036 9.6875 17.125 C10.23954102 18.68637695 10.23954102 18.68637695 10.80273438 20.27929688 C11.15013672 21.28154297 11.49753906 22.28378906 11.85546875 23.31640625 C12.32956177 24.68261108 12.32956177 24.68261108 12.81323242 26.07641602 C13.5 28.5625 13.5 28.5625 13.5 32.5625 C11.19 32.5625 8.88 32.5625 6.5 32.5625 C6.17 31.593125 5.84 30.62375 5.5 29.625 C3.89253557 26.45528582 3.89253557 26.45528582 1.51953125 25.94140625 C-0.47777644 25.71162749 -2.49059814 25.62838203 -4.5 25.5625 C-5.16 27.8725 -5.82 30.1825 -6.5 32.5625 C-9.14 32.5625 -11.78 32.5625 -14.5 32.5625 C-13.18430264 26.04947079 -11.38583262 19.97021748 -9.0625 13.75 C-8.76279297 12.91791016 -8.46308594 12.08582031 -8.15429688 11.22851562 C-4.3664582 0.9824531 -4.3664582 0.9824531 0 0 Z M-0.5 12.5625 C-1.16 14.8725 -1.82 17.1825 -2.5 19.5625 C-0.85 19.5625 0.8 19.5625 2.5 19.5625 C1.84 17.2525 1.18 14.9425 0.5 12.5625 C0.17 12.5625 -0.16 12.5625 -0.5 12.5625 Z " fill="#105A98" transform="translate(221.5,217.4375)"/>
<path d="M0 0 C1.04907227 1.83837891 1.04907227 1.83837891 1.81640625 4.2265625 C2.10580078 5.09410156 2.39519531 5.96164063 2.69335938 6.85546875 C2.98017578 7.76941406 3.26699219 8.68335938 3.5625 9.625 C4.14488113 11.4095914 4.72947958 13.19346089 5.31640625 14.9765625 C5.59460205 15.83338623 5.87279785 16.69020996 6.15942383 17.57299805 C6.92166105 19.77381136 7.78040114 21.87298269 8.734375 23.99609375 C10 27 10 27 9.6875 29.4375 C9.460625 29.953125 9.23375 30.46875 9 31 C6.03 31.495 6.03 31.495 3 32 C1 29 1 29 1 25 C-1.97 25 -4.94 25 -8 25 C-8.99 26.98 -9.98 28.96 -11 31 C-13.31 31 -15.62 31 -18 31 C-17.42703434 25.62670013 -16.10694603 21.07537325 -14.125 16.0625 C-13.74021484 15.06573242 -13.74021484 15.06573242 -13.34765625 14.04882812 C-12.83124801 12.71109723 -12.30817 11.37592119 -11.77832031 10.04345703 C-11.23859162 8.62641528 -10.74053599 7.19307042 -10.27636719 5.74951172 C-9.5546875 3.55859375 -9.5546875 3.55859375 -8 0 C-5.12507984 -1.22163208 -2.86093787 -1.26911249 0 0 Z M-5 11 C-5.66 13.31 -6.32 15.62 -7 18 C-5.35 18 -3.7 18 -2 18 C-2 15.69 -2 13.38 -2 11 C-2.99 11 -3.98 11 -5 11 Z " fill="#3272A5" transform="translate(360,219)"/>
<path d="M0 0 C0.79792969 0.00386719 1.59585937 0.00773437 2.41796875 0.01171875 C3.21589844 0.00785156 4.01382812 0.00398438 4.8359375 0 C10.79136108 0.01011108 10.79136108 0.01011108 11.91796875 1.13671875 C11.95889812 3.46969308 11.96038598 5.803771 11.91796875 8.13671875 C9.03585573 9.09742309 7.21946831 9.24253758 4.23046875 9.19921875 C3.01810547 9.18568359 3.01810547 9.18568359 1.78125 9.171875 C0.85892578 9.15447266 0.85892578 9.15447266 -0.08203125 9.13671875 C-0.41203125 10.45671875 -0.74203125 11.77671875 -1.08203125 13.13671875 C2.54796875 13.13671875 6.17796875 13.13671875 9.91796875 13.13671875 C9.91796875 15.44671875 9.91796875 17.75671875 9.91796875 20.13671875 C4.96796875 20.63171875 4.96796875 20.63171875 -0.08203125 21.13671875 C-0.08203125 22.45671875 -0.08203125 23.77671875 -0.08203125 25.13671875 C0.77261719 25.12511719 1.62726563 25.11351562 2.5078125 25.1015625 C3.61253906 25.09253906 4.71726562 25.08351563 5.85546875 25.07421875 C6.95761719 25.06261719 8.05976563 25.05101562 9.1953125 25.0390625 C11.91796875 25.13671875 11.91796875 25.13671875 12.91796875 26.13671875 C13.10546875 28.57421875 13.10546875 28.57421875 12.91796875 31.13671875 C10.91796875 33.13671875 10.91796875 33.13671875 9.03857422 33.36376953 C8.29494629 33.3532959 7.55131836 33.34282227 6.78515625 33.33203125 C5.97949219 33.32558594 5.17382812 33.31914062 4.34375 33.3125 C3.08111328 33.28736328 3.08111328 33.28736328 1.79296875 33.26171875 C0.51873047 33.24818359 0.51873047 33.24818359 -0.78125 33.234375 C-2.88163009 33.21077522 -4.98186569 33.17490358 -7.08203125 33.13671875 C-7.10668517 28.5977417 -7.12486914 24.05880332 -7.13696289 19.51977539 C-7.14200265 17.97452109 -7.14883445 16.42927159 -7.1574707 14.8840332 C-7.16955201 12.66746846 -7.17526298 10.45096657 -7.1796875 8.234375 C-7.18484879 7.53957535 -7.19001007 6.8447757 -7.19532776 6.12892151 C-7.19552402 4.46442545 -7.14392254 2.80006376 -7.08203125 1.13671875 C-5.19650595 -0.74880655 -2.50434294 0.00425186 0 0 Z " fill="#1E5E94" transform="translate(279.08203125,260.86328125)"/>
<path d="M0 0 C1.4540625 0.0309375 1.4540625 0.0309375 2.9375 0.0625 C5.53169647 5.51426315 7.57394232 10.90050406 9.2109375 16.7109375 C9.87311063 18.85410001 10.67034224 20.78719803 11.625 22.8125 C12.98295633 26.17505854 13.1998787 28.47665777 12.9375 32.0625 C10.6275 32.0625 8.3175 32.0625 5.9375 32.0625 C3.9375 28.3125 3.9375 28.3125 3.9375 26.0625 C2.82375 26.083125 1.71 26.10375 0.5625 26.125 C-3.0625 26.0625 -3.0625 26.0625 -5.0625 25.0625 C-5.7225 27.3725 -6.3825 29.6825 -7.0625 32.0625 C-9.3725 32.0625 -11.6825 32.0625 -14.0625 32.0625 C-13.10515836 25.20330496 -8.30165539 0.16942154 0 0 Z M-0.0625 11.0625 C-1.31914978 13.96850261 -2.0625 15.85854584 -2.0625 19.0625 C-0.4125 19.0625 1.2375 19.0625 2.9375 19.0625 C2.2775 16.4225 1.6175 13.7825 0.9375 11.0625 C0.6075 11.0625 0.2775 11.0625 -0.0625 11.0625 Z " fill="#105A95" transform="translate(409.0625,217.9375)"/>
<path d="M0 0 C7.33911411 -0.39870439 13.14162386 -0.36052116 18.9375 4.6875 C20.51074793 8.11162784 20.67423786 11.34606578 20 15 C18.20636089 17.8100346 16.98119065 19.50940468 14 21 C11.3276379 21.13415472 8.67749512 21.04318541 6 21 C6.20625 21.515625 6.4125 22.03125 6.625 22.5625 C7.16654476 26.08254095 6.1874101 28.68775078 5 32 C3 33 3 33 -2 32 C-2 22.1 -2 12.2 -2 2 C-1.34 2 -0.68 2 0 2 C0 1.34 0 0.68 0 0 Z M6 8 C6 9.65 6 11.3 6 13 C6.66 13 7.32 13 8 13 C8.33 13.66 8.66 14.32 9 15 C9.66 14.67 10.32 14.34 11 14 C11 13.34 11 12.68 11 12 C11.66 12 12.32 12 13 12 C12.34 10.68 11.68 9.36 11 8 C9.35 8 7.7 8 6 8 Z " fill="#0E5E9C" transform="translate(188,218)"/>
<path d="M0 0 C0.66 0 1.32 0 2 0 C2.01417969 1.09699219 2.02835938 2.19398438 2.04296875 3.32421875 C2.08988708 4.77868698 2.13813438 6.23311277 2.1875 7.6875 C2.19330078 8.40873047 2.19910156 9.12996094 2.20507812 9.87304688 C2.37783061 14.07669079 2.58305697 15.54187741 5.53125 18.78125 C6.3459375 19.5134375 7.160625 20.245625 8 21 C8.3125 24.8125 8.3125 24.8125 8 28 C10.31 28 12.62 28 15 28 C15 28.66 15 29.32 15 30 C16.32 29.67 17.64 29.34 19 29 C20.26977059 32.80931176 19.52074507 34.81618993 18.5625 38.6875 C18.27503906 39.86699219 17.98757812 41.04648437 17.69140625 42.26171875 C17.46324219 43.16535156 17.23507813 44.06898438 17 45 C16.67 45 16.34 45 16 45 C16 40.71 16 36.42 16 32 C15.34 32 14.68 32 14 32 C14 31.34 14 30.68 14 30 C12.54054712 30.08708669 11.08234132 30.19526907 9.625 30.3125 C8.81289062 30.37050781 8.00078125 30.42851562 7.1640625 30.48828125 C4.62078662 30.82990528 4.62078662 30.82990528 3 34 C2.70547416 36.38677076 2.5071783 38.78626094 2.375 41.1875 C2.30023438 42.45980469 2.22546875 43.73210937 2.1484375 45.04296875 C2.09945312 46.01878906 2.05046875 46.99460937 2 48 C1.67 48 1.34 48 1 48 C0.67 42.06 0.34 36.12 0 30 C-0.99 30.33 -1.98 30.66 -3 31 C-3.99 31 -4.98 31 -6 31 C-6 31.66 -6 32.32 -6 33 C-6.56203125 32.67257812 -7.1240625 32.34515625 -7.703125 32.0078125 C-10.26859964 30.88214506 -11.96842277 30.7931889 -14.75 30.875 C-15.94882813 30.90207031 -15.94882813 30.90207031 -17.171875 30.9296875 C-17.77515625 30.95289063 -18.3784375 30.97609375 -19 31 C-19.33 31.66 -19.66 32.32 -20 33 C-20.66 32.67 -21.32 32.34 -22 32 C-22 31.01 -22 30.02 -22 29 C-21.01 28.67 -20.02 28.34 -19 28 C-19 27.01 -19 26.02 -19 25 C-18.67 24.34 -18.34 23.68 -18 23 C-18.99 22.67 -19.98 22.34 -21 22 C-21 21.34 -21 20.68 -21 20 C-21.66 19.67 -22.32 19.34 -23 19 C-23 16.36 -23 13.72 -23 11 C-22.67 11 -22.34 11 -22 11 C-21.67 7.7 -21.34 4.4 -21 1 C-20.67 1 -20.34 1 -20 1 C-19.67 6.94 -19.34 12.88 -19 19 C-15.7 19 -12.4 19 -9 19 C-8.34 17.35 -7.68 15.7 -7 14 C-6.731875 14.639375 -6.46375 15.27875 -6.1875 15.9375 C-5.11332248 18.33131686 -5.11332248 18.33131686 -2 19 C-1.67 19.66 -1.34 20.32 -1 21 C-0.67 14.07 -0.34 7.14 0 0 Z " fill="#18649E" transform="translate(113,237)"/>
<path d="M0 0 C3.1875 -0.5 3.1875 -0.5 7 0 C8.66914446 1.97183905 9.78715136 3.95016786 10.95703125 6.25 C11.30121094 6.8275 11.64539063 7.405 12 8 C12.66 8 13.32 8 14 8 C14.144375 7.401875 14.28875 6.80375 14.4375 6.1875 C14.8872439 4.43849596 15.42892341 2.71322977 16 1 C19.1967 -0.37001429 21.69903842 0.1747596 25 1 C24.34 2.98 23.68 4.96 23 7 C22.34 7 21.68 7 21 7 C20.896875 7.515625 20.79375 8.03125 20.6875 8.5625 C20 11 20 11 18.5 14.25 C16.33923067 19.17528303 15.04825509 24.79534689 17 30 C13.88228073 31.60339848 12.60988311 32.18974141 9.1875 31.125 C8.465625 30.75375 7.74375 30.3825 7 30 C7.33 29.01 7.66 28.02 8 27 C9.09759253 19.56076177 6.76807966 15.0378414 2.84594727 8.8737793 C0.72179935 5.5070356 0 4.11113248 0 0 Z " fill="#2A6B9D" transform="translate(420,219)"/>
<path d="M0 0 C0.98613281 0.00322266 1.97226563 0.00644531 2.98828125 0.00976562 C4.02082031 0.01814453 5.05335938 0.02652344 6.1171875 0.03515625 C7.67759766 0.04192383 7.67759766 0.04192383 9.26953125 0.04882812 C11.84380712 0.06063673 14.41796896 0.0771055 16.9921875 0.09765625 C16.9921875 2.07765625 16.9921875 4.05765625 16.9921875 6.09765625 C14.08618489 7.35430603 12.19614166 8.09765625 8.9921875 8.09765625 C9.00004272 9.08946899 9.00004272 9.08946899 9.00805664 10.10131836 C9.02876406 13.07925476 9.04182762 16.05717607 9.0546875 19.03515625 C9.06306641 20.07607422 9.07144531 21.11699219 9.08007812 22.18945312 C9.08491211 23.67348633 9.08491211 23.67348633 9.08984375 25.1875 C9.09769897 26.56216431 9.09769897 26.56216431 9.10571289 27.96459961 C8.9921875 30.09765625 8.9921875 30.09765625 7.9921875 31.09765625 C5.65921317 31.13858562 3.32513525 31.14007348 0.9921875 31.09765625 C-0.28272466 28.54783192 -0.03377866 26.93300201 0.11328125 24.08984375 C0.16162109 23.10371094 0.20996094 22.11757813 0.25976562 21.1015625 C0.31583984 20.06902344 0.37191406 19.03648437 0.4296875 17.97265625 C0.48189453 16.93238281 0.53410156 15.89210938 0.58789062 14.8203125 C0.71779696 12.24580509 0.85277002 9.67166329 0.9921875 7.09765625 C-1.3178125 7.09765625 -3.6278125 7.09765625 -6.0078125 7.09765625 C-6.3378125 5.11765625 -6.6678125 3.13765625 -7.0078125 1.09765625 C-4.50284246 -0.15482877 -2.79927976 -0.01608781 0 0 Z " fill="#155B99" transform="translate(252.0078125,261.90234375)"/>
<path d="M0 0 C3 0.1875 3 0.1875 5 1.1875 C4.9278125 1.93773437 4.855625 2.68796875 4.78125 3.4609375 C4.18194595 10.06992933 3.90242286 16.55225475 4 23.1875 C7.63 23.1875 11.26 23.1875 15 23.1875 C15 25.8275 15 28.4675 15 31.1875 C8.4 31.1875 1.8 31.1875 -5 31.1875 C-5.04588098 27.09389692 -5.08571438 23.0009478 -5.10986328 18.90722656 C-5.11992877 17.51429219 -5.13358234 16.12137898 -5.15087891 14.72851562 C-5.1751022 12.7279564 -5.18540814 10.72724385 -5.1953125 8.7265625 C-5.20578613 7.52209473 -5.21625977 6.31762695 -5.22705078 5.07666016 C-4.90709019 1.00524764 -4.06575239 0.25410952 0 0 Z " fill="#367BAA" transform="translate(377,218.8125)"/>
<path d="M0 0 C0 7.26 0 14.52 0 22 C3.3 22 6.6 22 10 22 C11 23 11 23 11.1875 25.4375 C11 28 11 28 9 30 C6.29368306 30.1720611 3.7028606 30.23239017 1 30.1875 C0.26265625 30.18685547 -0.4746875 30.18621094 -1.234375 30.18554688 C-6.71898191 30.14050904 -6.71898191 30.14050904 -9 29 C-9.0246985 25.04900072 -9.04285923 21.09803126 -9.05493164 17.14697266 C-9.06244036 15.14093449 -9.0751447 13.13491798 -9.08789062 11.12890625 C-9.09111328 9.87207031 -9.09433594 8.61523438 -9.09765625 7.3203125 C-9.10289307 6.15773926 -9.10812988 4.99516602 -9.11352539 3.79736328 C-9 1 -9 1 -8 -1 C-4.33717284 -2.51565262 -3.8613964 -1.9306982 0 0 Z " fill="#4583B5" transform="translate(304,264)"/>
<path d="M0 0 C0.33 0 0.66 0 1 0 C1 21.78 1 43.56 1 66 C3.31 66 5.62 66 8 66 C10 69 10 69 9 77 C-23.67 77 -56.34 77 -90 77 C-90 76.67 -90 76.34 -90 76 C-46.44 75.505 -46.44 75.505 -2 75 C-2.33 74.01 -2.66 73.02 -3 72 C-2.34964186 70.65863633 -1.6837045 69.32467746 -1 68 C-1.33 67.34 -1.66 66.68 -2 66 C-1.67 65.34 -1.34 64.68 -1 64 C-0.87962039 61.96839528 -0.82260878 59.9329256 -0.79467773 57.89794922 C-0.77473251 56.61677216 -0.75478729 55.33559509 -0.73423767 54.01559448 C-0.71725331 52.61196006 -0.70037451 51.20832437 -0.68359375 49.8046875 C-0.6630246 48.37264403 -0.64202814 46.94060663 -0.62062073 45.50857544 C-0.56539597 41.73733437 -0.51598853 37.96603848 -0.46777344 34.19470215 C-0.41756133 30.34719964 -0.36187376 26.49977687 -0.30664062 22.65234375 C-0.19905413 15.10163 -0.09761029 7.55085 0 0 Z " fill="#296594" transform="translate(164,233)"/>
<path d="M0 0 C0.66 0.33 1.32 0.66 2 1 C2 11.23 2 21.46 2 32 C-1.10046087 33.03348696 -2.05610218 33.17755913 -5 32 C-6.07917226 28.76248322 -6.11425601 26.42248229 -6.09765625 23.01953125 C-6.09443359 21.85615234 -6.09121094 20.69277344 -6.08789062 19.49414062 C-6.07951172 18.27919922 -6.07113281 17.06425781 -6.0625 15.8125 C-6.05798828 14.58595703 -6.05347656 13.35941406 -6.04882812 12.09570312 C-6.03703065 9.06375332 -6.02056921 6.03190094 -6 3 C-4.03533587 1.93224776 -2.03144641 0.93446535 0 0 Z " fill="#5689B3" transform="translate(274,218)"/>
<path d="M0 0 C3.09038848 1.54519424 5.56246661 3.56246661 8 6 C7.195625 6.391875 6.39125 6.78375 5.5625 7.1875 C2.86111111 8.74479757 2.86111111 8.74479757 2.125 11.25 C1.97237535 14.60774237 2.41696867 17.6961558 3 21 C2.34 21.33 1.68 21.66 1 22 C0.34786708 24.02463255 0.34786708 24.02463255 0 26 C0.99 25.67 1.98 25.34 3 25 C3.33 26.98 3.66 28.96 4 31 C-4.82849951 26.33588705 -4.82849951 26.33588705 -6.87109375 20.51953125 C-8.14912936 14.41140244 -8.16242677 10.39854274 -5.2265625 4.81640625 C-3.77032476 2.65987584 -2.30031298 1.23231053 0 0 Z " fill="#2F73A8" transform="translate(222,263)"/>
<path d="M0 0 C0.66 0 1.32 0 2 0 C3.60911771 3.21823542 3.34016955 6.76959179 3.5 10.3125 C3.71388598 14.982344 3.99895538 19.42022088 5 24 C5 24.99 5 25.98 5 27 C4.34 27 3.68 27 3 27 C3 27.66 3 28.32 3 29 C-0.25 29.375 -0.25 29.375 -4 29 C-6.68540959 26.03916379 -7.90209888 24.12586284 -8.25 20.125 C-8.1675 19.42375 -8.085 18.7225 -8 18 C-7.01 17.67 -6.02 17.34 -5 17 C-5 16.34 -5 15.68 -5 15 C-4.34 15 -3.68 15 -3 15 C-3 10.71 -3 6.42 -3 2 C-2.34 3.32 -1.68 4.64 -1 6 C-0.67 4.02 -0.34 2.04 0 0 Z " fill="#105F9D" transform="translate(303,221)"/>
<path d="M0 0 C1.4540625 0.0309375 1.4540625 0.0309375 2.9375 0.0625 C6.48504291 7.51774246 8.97601207 15.05156333 10.9375 23.0625 C9.9475 22.7325 8.9575 22.4025 7.9375 22.0625 C7.2775 18.7625 6.6175 15.4625 5.9375 12.0625 C4.9475 11.7325 3.9575 11.4025 2.9375 11.0625 C2.9375 13.3725 2.9375 15.6825 2.9375 18.0625 C0.9375 16.0625 0.9375 16.0625 -0.0625 13.0625 C-0.7225 15.0425 -1.3825 17.0225 -2.0625 19.0625 C-0.4125 19.0625 1.2375 19.0625 2.9375 19.0625 C2.9375 19.3925 2.9375 19.7225 2.9375 20.0625 C0.2975 20.0625 -2.3425 20.0625 -5.0625 20.0625 C-5.0625 19.4025 -5.0625 18.7425 -5.0625 18.0625 C-6.3825 17.7325 -7.7025 17.4025 -9.0625 17.0625 C-4.36774017 0.08913755 -4.36774017 0.08913755 0 0 Z " fill="#467CA5" transform="translate(409.0625,217.9375)"/>
<path d="M0 0 C0.66 0.33 1.32 0.66 2 1 C3.38933364 7.1097202 2.95014643 13.1565745 2.625 19.375 C2.58117187 20.38433594 2.53734375 21.39367187 2.4921875 22.43359375 C2.13197268 29.86802732 2.13197268 29.86802732 1 31 C-0.99958364 31.04080783 -3.00045254 31.04254356 -5 31 C-5.02715383 29.25008666 -5.04646551 27.50005055 -5.0625 25.75 C-5.07410156 24.77546875 -5.08570313 23.8009375 -5.09765625 22.796875 C-5 20 -5 20 -4.43359375 17.828125 C-3.7793461 15.78425138 -3.7793461 15.78425138 -5 13 C-5.0685495 11.10529184 -5.08480372 9.2083166 -5.0625 7.3125 C-5.05347656 6.31863281 -5.04445312 5.32476562 -5.03515625 4.30078125 C-5.02355469 3.54152344 -5.01195312 2.78226562 -5 2 C-2.625 0.9375 -2.625 0.9375 0 0 Z " fill="#135A93" transform="translate(209,261)"/>
<path d="M0 0 C-0.33 1.98 -0.66 3.96 -1 6 C-0.01 5.67 0.98 5.34 2 5 C2.33 10.61 2.66 16.22 3 22 C-3.93359375 22.09765625 -3.93359375 22.09765625 -6 22 C-7 21 -7 21 -7.11352539 19.23413086 C-7.10828857 18.48526611 -7.10305176 17.73640137 -7.09765625 16.96484375 C-7.09443359 16.15595703 -7.09121094 15.34707031 -7.08789062 14.51367188 C-7.07951172 13.66353516 -7.07113281 12.81339844 -7.0625 11.9375 C-7.05798828 11.08349609 -7.05347656 10.22949219 -7.04882812 9.34960938 C-7.03700373 7.23304337 -7.01906769 5.11651315 -7 3 C-7.66 3 -8.32 3 -9 3 C-8.6875 1.0625 -8.6875 1.0625 -8 -1 C-4.37673261 -2.2077558 -3.35853631 -1.54311128 0 0 Z " fill="#105E9A" transform="translate(137,234)"/>
<path d="M0 0 C2.6430157 4.8996256 4.86278024 10.73020283 3.25 16.25 C2.63125 17.61125 2.63125 17.61125 2 19 C1.34 19 0.68 19 0 19 C-1.25664978 16.09399739 -2 14.20395416 -2 11 C-3.32 11.33 -4.64 11.66 -6 12 C-6 10.68 -6 9.36 -6 8 C-6.66 8 -7.32 8 -8 8 C-7.67 10.64 -7.34 13.28 -7 16 C-8.32 16.33 -9.64 16.66 -11 17 C-12.51085517 11.2083885 -11.46157326 7.56201349 -9.30078125 2.0390625 C-8 0 -8 0 -6.10546875 -0.8515625 C-3.64046097 -1.02534784 -2.24616368 -1.08148622 0 0 Z " fill="#38719E" transform="translate(360,219)"/>
<path d="M0 0 C2.25 -0.3125 2.25 -0.3125 5 0 C8.13055054 3.04359081 9.64576855 5.63114543 10 10 C9.67 10.66 9.34 11.32 9 12 C9.99 12 10.98 12 12 12 C11.67 13.32 11.34 14.64 11 16 C10.67 15.34 10.34 14.68 10 14 C9.38125 14.185625 8.7625 14.37125 8.125 14.5625 C6 15 6 15 4 14 C4 17.63 4 21.26 4 25 C3.67 25 3.34 25 3 25 C2.67 20.71 2.34 16.42 2 12 C1.34 12 0.68 12 0 12 C-0.33 17.61 -0.66 23.22 -1 29 C0.32 28.67 1.64 28.34 3 28 C3 28.66 3 29.32 3 30 C1.35 30 -0.3 30 -2 30 C-2.05805933 25.75005737 -2.09361654 21.50021676 -2.125 17.25 C-2.14175781 16.0434375 -2.15851563 14.836875 -2.17578125 13.59375 C-2.18222656 12.43359375 -2.18867188 11.2734375 -2.1953125 10.078125 C-2.20578613 9.00981445 -2.21625977 7.94150391 -2.22705078 6.84082031 C-2.00161519 4.02020895 -1.45848994 2.39212537 0 0 Z " fill="#0E5590" transform="translate(284,219)"/>
<path d="M0 0 C0 3.63 0 7.26 0 11 C3.3 11 6.6 11 10 11 C10 11.33 10 11.66 10 12 C6.04 12 2.08 12 -2 12 C-2 10.02 -2 8.04 -2 6 C-2.99 6 -3.98 6 -5 6 C-5.33 13.26 -5.66 20.52 -6 28 C-4.68 28 -3.36 28 -2 28 C-1.67 24.37 -1.34 20.74 -1 17 C2.63 17 6.26 17 10 17 C10 17.66 10 18.32 10 19 C7.03 19 4.06 19 1 19 C0.96261719 19.69867188 0.92523438 20.39734375 0.88671875 21.1171875 C0.82097656 22.02726562 0.75523437 22.93734375 0.6875 23.875 C0.62949219 24.77992188 0.57148438 25.68484375 0.51171875 26.6171875 C0 29 0 29 -3 31 C-5.6875 30.625 -5.6875 30.625 -8 30 C-8.99531637 24.21768583 -9.15070368 18.61043795 -9.125 12.75 C-9.12886719 11.8528125 -9.13273438 10.955625 -9.13671875 10.03125 C-9.13542969 9.17015625 -9.13414062 8.3090625 -9.1328125 7.421875 C-9.13168457 6.64424805 -9.13055664 5.86662109 -9.12939453 5.06542969 C-9 3 -9 3 -8 0 C-2.25 -1.125 -2.25 -1.125 0 0 Z " fill="#6E9ABB" transform="translate(246,220)"/>
<path d="M0 0 C2.5 0.5625 2.5 0.5625 4.1875 2.5625 C5.77943653 6.20121208 6.64546912 9.68424448 7.5 13.5625 C5.85 12.9025 4.2 12.2425 2.5 11.5625 C2.5 10.9025 2.5 10.2425 2.5 9.5625 C1.84 9.5625 1.18 9.5625 0.5 9.5625 C0.726875 10.14 0.95375 10.7175 1.1875 11.3125 C1.5 13.5625 1.5 13.5625 0.1875 15.625 C-0.369375 16.264375 -0.92625 16.90375 -1.5 17.5625 C-2.16 18.5525 -2.82 19.5425 -3.5 20.5625 C-3.5 18.2525 -3.5 15.9425 -3.5 13.5625 C-6.01083114 14.81791557 -6.37125446 16.06313488 -7.5 18.5625 C-8.16 18.5625 -8.82 18.5625 -9.5 18.5625 C-9.17 19.5525 -8.84 20.5425 -8.5 21.5625 C-8.83 22.2225 -9.16 22.8825 -9.5 23.5625 C-10.16 23.5625 -10.82 23.5625 -11.5 23.5625 C-10.89055895 19.07972247 -9.75451574 15.15448921 -8.125 10.9375 C-7.70476562 9.83148438 -7.28453125 8.72546875 -6.8515625 7.5859375 C-3.84741076 0.86566742 -3.84741076 0.86566742 0 0 Z " fill="#3B76A7" transform="translate(221.5,217.4375)"/>
<path d="M0 0 C0.78375 0.185625 1.5675 0.37125 2.375 0.5625 C4.97089775 1.25962266 4.97089775 1.25962266 7 0 C8.34862385 21.00917431 8.34862385 21.00917431 7 30 C6.67 30 6.34 30 6 30 C5.67 27.03 5.34 24.06 5 21 C3.02 20.67 1.04 20.34 -1 20 C-3.17647059 4.76470588 -3.17647059 4.76470588 0 0 Z " fill="#12609B" transform="translate(107,266)"/>
<path d="M0 0 C0.33 0 0.66 0 1 0 C1 2.31 1 4.62 1 7 C3.33075929 6.04134491 3.33075929 6.04134491 5 3 C5.33 4.65 5.66 6.3 6 8 C6.33 6.68 6.66 5.36 7 4 C7.12375 4.639375 7.2475 5.27875 7.375 5.9375 C7.684375 6.9584375 7.684375 6.9584375 8 8 C8.66 8.33 9.32 8.66 10 9 C10 9.66 10 10.32 10 11 C10.721875 11.12375 11.44375 11.2475 12.1875 11.375 C14.95721894 11.9904931 17.3970354 12.88444374 20 14 C19.34 15.65 18.68 17.3 18 19 C13.28809898 19.37695208 9.92629407 19.46314703 5.625 17.3125 C2.13897855 14.24148111 0.1545399 12.23567717 -0.17578125 7.45703125 C-0.18633374 4.96312673 -0.13055302 2.49017794 0 0 Z " fill="#386F9D" transform="translate(310,231)"/>
<path d="M0 0 C0.66 0.33 1.32 0.66 2 1 C1.88570603 2.77155654 1.75816963 4.54226229 1.625 6.3125 C1.55539062 7.29863281 1.48578125 8.28476563 1.4140625 9.30078125 C1 12 1 12 -1 15 C-3.8203125 15.51171875 -3.8203125 15.51171875 -7.125 15.6875 C-9.06375 15.790625 -11.0025 15.89375 -13 16 C-13.33 19.96 -13.66 23.92 -14 28 C-14.99 28 -15.98 28 -17 28 C-17 19.42 -17 10.84 -17 2 C-16.67 3.32 -16.34 4.64 -16 6 C-15.01 6 -14.02 6 -13 6 C-13 7.98 -13 9.96 -13 12 C-9.04 12 -5.08 12 -1 12 C-1.020625 10.205625 -1.04125 8.41125 -1.0625 6.5625 C-1.0838122 4.70833878 -1.07226502 2.85287502 -1 1 C-0.67 0.67 -0.34 0.34 0 0 Z " fill="#0F5B98" transform="translate(257,220)"/>
<path d="M0 0 C0.66 1.32 1.32 2.64 2 4 C2.85464844 3.98839844 3.70929688 3.97679687 4.58984375 3.96484375 C5.69457031 3.95582031 6.79929687 3.94679688 7.9375 3.9375 C9.03964844 3.92589844 10.14179688 3.91429687 11.27734375 3.90234375 C14 4 14 4 15 5 C15.1875 7.4375 15.1875 7.4375 15 10 C13 12 13 12 11.12060547 12.22705078 C10.37697754 12.21657715 9.63334961 12.20610352 8.8671875 12.1953125 C7.65869141 12.18564453 7.65869141 12.18564453 6.42578125 12.17578125 C5.58402344 12.15902344 4.74226563 12.14226562 3.875 12.125 C2.60076172 12.11146484 2.60076172 12.11146484 1.30078125 12.09765625 C-0.79959884 12.07405647 -2.89983444 12.03818483 -5 12 C-4.67 8.7 -4.34 5.4 -4 2 C-3.34 2 -2.68 2 -2 2 C-1.67 2.66 -1.34 3.32 -1 4 C-0.67 2.68 -0.34 1.36 0 0 Z " fill="#3F86B2" transform="translate(277,282)"/>
<path d="M0 0 C3.3 0 6.6 0 10 0 C10.33 0.66 10.66 1.32 11 2 C8.03 2 5.06 2 2 2 C1.67 10.91 1.34 19.82 1 29 C1.66 29 2.32 29 3 29 C3.33 26.36 3.66 23.72 4 21 C5.5625 22.0625 5.5625 22.0625 7 24 C6.875 27.5625 6.875 27.5625 6 31 C3 33 3 33 -2 32 C-2 22.1 -2 12.2 -2 2 C-1.34 2 -0.68 2 0 2 C0 1.34 0 0.68 0 0 Z " fill="#5387AE" transform="translate(188,218)"/>
<path d="M0 0 C0.33 0 0.66 0 1 0 C1 4.95 1 9.9 1 15 C2.32 14.67 3.64 14.34 5 14 C5 10.37 5 6.74 5 3 C7 5 7 5 7.24291992 7.04711914 C7.23675659 8.27869751 7.23675659 8.27869751 7.23046875 9.53515625 C7.22853516 10.42654297 7.22660156 11.31792969 7.22460938 12.23632812 C7.21236328 13.16896484 7.20011719 14.10160156 7.1875 15.0625 C7.18685547 15.99900391 7.18621094 16.93550781 7.18554688 17.90039062 C7.14019224 24.85980776 7.14019224 24.85980776 6 26 C3.66702567 26.04092937 1.33294775 26.04241723 -1 26 C-2.2923895 23.415221 -2.03830646 21.69395091 -1.9140625 18.80859375 C-1.87023437 17.78185547 -1.82640625 16.75511719 -1.78125 15.69726562 C-1.7296875 14.62154297 -1.678125 13.54582031 -1.625 12.4375 C-1.58117187 11.35791016 -1.53734375 10.27832031 -1.4921875 9.16601562 C-1.12845108 1.12845108 -1.12845108 1.12845108 0 0 Z " fill="#1D598B" transform="translate(254,267)"/>
<path d="M0 0 C0.33 0 0.66 0 1 0 C1.36082877 2.64508361 1.71395352 5.29079547 2.0625 7.9375 C2.16626953 8.69224609 2.27003906 9.44699219 2.37695312 10.22460938 C2.62665638 12.14474128 2.81790281 14.07228144 3 16 C2.67 16.33 2.34 16.66 2 17 C1.76636119 18.84891946 1.58696365 20.70488031 1.4375 22.5625 C1.35371094 23.57441406 1.26992187 24.58632813 1.18359375 25.62890625 C1.09271484 26.80259766 1.09271484 26.80259766 1 28 C4.465 27.505 4.465 27.505 8 27 C8 27.66 8 28.32 8 29 C4.71303767 29.79953138 3.28976808 30.09658936 0 29 C0 25.04 0 21.08 0 17 C-2.97 17.33 -5.94 17.66 -9 18 C-9 21.3 -9 24.6 -9 28 C-10.98 28.66 -12.96 29.32 -15 30 C-17.24606427 28.22555028 -17.95081002 27.41647515 -18.29296875 24.51953125 C-18.25816406 23.62621094 -18.22335938 22.73289062 -18.1875 21.8125 C-18.16042969 20.91144531 -18.13335937 20.01039063 -18.10546875 19.08203125 C-18.07066406 18.39496094 -18.03585938 17.70789063 -18 17 C-17.67 17 -17.34 17 -17 17 C-16.67 19.64 -16.34 22.28 -16 25 C-14.35 25.33 -12.7 25.66 -11 26 C-11 22.7 -11 19.4 -11 16 C-7.7 15.67 -4.4 15.34 -1 15 C-0.67 10.05 -0.34 5.1 0 0 Z " fill="#73A0C4" transform="translate(203,264)"/>
<path d="M0 0 C1.84754883 -0.00193359 1.84754883 -0.00193359 3.73242188 -0.00390625 C5.63411133 0.00189453 5.63411133 0.00189453 7.57421875 0.0078125 C8.86134766 0.00394531 10.14847656 0.00007812 11.47460938 -0.00390625 C13.31249023 -0.00197266 13.31249023 -0.00197266 15.1875 0 C16.86453003 0.00169189 16.86453003 0.00169189 18.57543945 0.00341797 C21.26171875 0.1328125 21.26171875 0.1328125 23.26171875 1.1328125 C23.26171875 1.7928125 23.26171875 2.4528125 23.26171875 3.1328125 C21.91424561 3.12495728 21.91424561 3.12495728 20.53955078 3.11694336 C17.21109376 3.09991525 13.88268294 3.08736913 10.55419922 3.07788086 C9.11278555 3.07284776 7.67137699 3.06602077 6.22998047 3.05737305 C4.1598179 3.04526267 2.08972274 3.03957403 0.01953125 3.03515625 C-1.85001221 3.02730103 -1.85001221 3.02730103 -3.75732422 3.01928711 C-6.66599231 2.92464663 -6.66599231 2.92464663 -8.73828125 4.1328125 C-9.66640625 4.0915625 -10.59453125 4.0503125 -11.55078125 4.0078125 C-17.13626655 4.22685114 -20.00847091 7.2899776 -23.73828125 11.1328125 C-25.7098152 12.83660727 -27.72123175 14.48249927 -29.73828125 16.1328125 C-29.73828125 12.20112145 -28.3440851 10.96854022 -25.73828125 8.1328125 C-25.07828125 8.1328125 -24.41828125 8.1328125 -23.73828125 8.1328125 C-23.73828125 7.4728125 -23.73828125 6.8128125 -23.73828125 6.1328125 C-22.22444012 5.30735788 -20.70176286 4.49810163 -19.17578125 3.6953125 C-18.32886719 3.24285156 -17.48195313 2.79039062 -16.609375 2.32421875 C-11.27501648 0.1106414 -5.7162355 0.00573796 0 0 Z " fill="#7193B4" transform="translate(117.73828125,194.8671875)"/>
<path d="M0 0 C1.32 0.66 2.64 1.32 4 2 C2.7260411 4.03833424 1.38938077 6.03852126 0 8 C-0.66 8 -1.32 8 -2 8 C-1.98839844 8.91523438 -1.97679687 9.83046875 -1.96484375 10.7734375 C-1.95582031 11.96195312 -1.94679687 13.15046875 -1.9375 14.375 C-1.92589844 15.55835938 -1.91429687 16.74171875 -1.90234375 17.9609375 C-2 21 -2 21 -3 23 C-4.32 22.67 -5.64 22.34 -7 22 C-8.33257403 9.33029613 -8.33257403 9.33029613 -7 4 C-5.02 4 -3.04 4 -1 4 C-0.67 2.68 -0.34 1.36 0 0 Z " fill="#0D5F9E" transform="translate(139,261)"/>
<path d="M0 0 C1.875 0.1875 1.875 0.1875 4 1 C5.78284814 4.29826907 6 6.1774751 6 10 C6.69867188 9.90460938 7.39734375 9.80921875 8.1171875 9.7109375 C9.02726562 9.60007813 9.93734375 9.48921875 10.875 9.375 C11.77992188 9.25898438 12.68484375 9.14296875 13.6171875 9.0234375 C14.40351563 9.01570312 15.18984375 9.00796875 16 9 C16.66 9.66 17.32 10.32 18 11 C17.625 13.125 17.625 13.125 17 15 C16.67 13.68 16.34 12.36 16 11 C15.26394531 11.08378906 14.52789062 11.16757813 13.76953125 11.25390625 C12.79371094 11.35574219 11.81789062 11.45757812 10.8125 11.5625 C9.84957031 11.66691406 8.88664062 11.77132812 7.89453125 11.87890625 C5.04954852 11.99792712 2.76560157 11.60409044 0 11 C-1.67293936 11.30027117 -3.33985384 11.63557767 -5 12 C-6.9996441 12.03772913 -9.00054061 12.04649906 -11 12 C-11 13.32 -11 14.64 -11 16 C-12.32 15.34 -13.64 14.68 -15 14 C-14.67 12.68 -14.34 11.36 -14 10 C-10.7 10 -7.4 10 -4 10 C-3.566875 8.3603125 -3.566875 8.3603125 -3.125 6.6875 C-2 3 -2 3 0 0 Z " fill="#135993" transform="translate(121,162)"/>
<path d="M0 0 C2.35953094 2.35953094 2.49141413 3.77895617 3 7 C3.66 7 4.32 7 5 7 C5.33 5.35 5.66 3.7 6 2 C6.66 2 7.32 2 8 2 C12.40774487 12.37357631 12.40774487 12.37357631 13 18 C10.69 18.66 8.38 19.32 6 20 C5.01 17.69 4.02 15.38 3 13 C4.65 11.35 6.3 9.7 8 8 C6.68 8 5.36 8 4 8 C4 8.66 4 9.32 4 10 C2.35 10 0.7 10 -1 10 C-1 9.34 -1 8.68 -1 8 C-0.34 7.67 0.32 7.34 1 7 C0.67 4.69 0.34 2.38 0 0 Z " fill="#759BBB" transform="translate(357,231)"/>
<path d="M0 0 C-0.66 6.93 -1.32 13.86 -2 21 C-2.33 21 -2.66 21 -3 21 C-3.33 18.36 -3.66 15.72 -4 13 C-5.96822886 14.96822886 -5.66248381 18.34808709 -6 21 C-6.33 21 -6.66 21 -7 21 C-7 16.38 -7 11.76 -7 7 C-7.66 7 -8.32 7 -9 7 C-9.125 1.25 -9.125 1.25 -8 -1 C-4.33717284 -2.51565262 -3.8613964 -1.9306982 0 0 Z " fill="#14538B" transform="translate(304,264)"/>
<path d="M0 0 C1.101173 3.30351899 1.03109831 5.51387172 0.87890625 8.98046875 C0.83056641 10.14384766 0.78222656 11.30722656 0.73242188 12.50585938 C0.67634766 13.72080078 0.62027344 14.93574219 0.5625 16.1875 C0.51029297 17.41404297 0.45808594 18.64058594 0.40429688 19.90429688 C0.27451599 22.93645018 0.13954569 25.96828294 0 29 C1.65 29 3.3 29 5 29 C3.68 28.67 2.36 28.34 1 28 C1 22.06 1 16.12 1 10 C2.32 10.33 3.64 10.66 5 11 C5.33 17.27 5.66 23.54 6 30 C2.86650268 31.04449911 2.01031744 30.93423645 -1 30 C-1.0246985 26.04900072 -1.04285923 22.09803126 -1.05493164 18.14697266 C-1.06244036 16.14093449 -1.0751447 14.13491798 -1.08789062 12.12890625 C-1.09111328 10.87207031 -1.09433594 9.61523438 -1.09765625 8.3203125 C-1.10289307 7.15773926 -1.10812988 5.99516602 -1.11352539 4.79736328 C-1 2 -1 2 0 0 Z " fill="#4C8BBB" transform="translate(282,220)"/>
<path d="M0 0 C1.6188161 3.09179291 2.91167918 6.22852758 4.125 9.5 C4.47820312 10.4384375 4.83140625 11.376875 5.1953125 12.34375 C6 15 6 15 6 19 C3.69 19 1.38 19 -1 19 C-1.33 18.030625 -1.66 17.06125 -2 16.0625 C-3.60746443 12.89278582 -3.60746443 12.89278582 -5.98046875 12.37890625 C-7.97777644 12.14912749 -9.99059814 12.06588203 -12 12 C-12.33 12.99 -12.66 13.98 -13 15 C-13.33 14.34 -13.66 13.68 -14 13 C-13.67 12.34 -13.34 11.68 -13 11 C-9.04 11 -5.08 11 -1 11 C-1.33 10.01 -1.66 9.02 -2 8 C-1.54451823 5.26187393 -0.74685247 2.6798824 0 0 Z " fill="#2C6B9D" transform="translate(229,231)"/>
<path d="M0 0 C1.98 0.99 1.98 0.99 4 2 C3.814375 2.886875 3.62875 3.77375 3.4375 4.6875 C3.01957516 7.85178811 3.19222258 9.94839642 4 13 C5.65 13 7.3 13 9 13 C9.33 12.34 9.66 11.68 10 11 C8.35 11 6.7 11 5 11 C5 10.67 5 10.34 5 10 C8.3 10 11.6 10 15 10 C15 11.65 15 13.3 15 15 C10.545 15.495 10.545 15.495 6 16 C5.34 17.98 4.68 19.96 4 22 C3.34 21.67 2.68 21.34 2 21 C2 20.34 2 19.68 2 19 C1.34 19 0.68 19 0 19 C0 12.73 0 6.46 0 0 Z " fill="#125995" transform="translate(273,265)"/>
<path d="M0 0 C0.33 0 0.66 0 1 0 C1.49029622 7.23186925 1.49029622 7.23186925 -0.875 10.9375 C-3.01260116 13.01223054 -3.98327003 13.94895934 -6.9453125 14.09765625 C-8.96354167 14.06510417 -10.98177083 14.03255208 -13 14 C-13.8723412 11.00519083 -14.10829766 8.36424089 -14.0625 5.25 C-14.05347656 4.45078125 -14.04445312 3.6515625 -14.03515625 2.828125 C-14.02355469 2.22484375 -14.01195312 1.6215625 -14 1 C-13.01 2.485 -13.01 2.485 -12 4 C-12.33 4.66 -12.66 5.32 -13 6 C-11.35 6.33 -9.7 6.66 -8 7 C-8 6.34 -8 5.68 -8 5 C-7.34 5 -6.68 5 -6 5 C-5.67 4.34 -5.34 3.68 -5 3 C-5 3.66 -5 4.32 -5 5 C-3.68 5 -2.36 5 -1 5 C-0.67 3.35 -0.34 1.7 0 0 Z " fill="#4684B6" transform="translate(207,225)"/>
<path d="M0 0 C2 4 2 4 2 6 C2.45375 5.505 2.9075 5.01 3.375 4.5 C5 3 5 3 7 3 C7 8.94 7 14.88 7 21 C6.01 21 5.02 21 4 21 C4 20.34 4 19.68 4 19 C3.01 19 2.02 19 1 19 C1 17.35 1 15.7 1 14 C0.34 13.67 -0.32 13.34 -1 13 C-0.67 8.71 -0.34 4.42 0 0 Z " fill="#0F5C97" transform="translate(106,237)"/>
<path d="M0 0 C0.66 0 1.32 0 2 0 C4.09605729 4.19211458 4.54345827 9.63086159 3.5 14.1796875 C2.75 16.0625 2.75 16.0625 1 19 C-2 20 -2 20 -6 20 C-6 20.66 -6 21.32 -6 22 C-6.66 22 -7.32 22 -8 22 C-8 20.68 -8 19.36 -8 18 C-7.01 17.67 -6.02 17.34 -5 17 C-5 16.34 -5 15.68 -5 15 C-4.34 15 -3.68 15 -3 15 C-3 10.71 -3 6.42 -3 2 C-2.34 3.32 -1.68 4.64 -1 6 C-0.67 4.02 -0.34 2.04 0 0 Z " fill="#0E5B98" transform="translate(303,221)"/>
<path d="M0 0 C0.66 0 1.32 0 2 0 C2.33 2.31 2.66 4.62 3 7 C3.99 7.33 4.98 7.66 6 8 C6 30.77 6 53.54 6 77 C5.67 77 5.34 77 5 77 C5 54.89 5 32.78 5 10 C3.68 10 2.36 10 1 10 C-0.60725635 6.78548731 -0.05748185 3.56387464 0 0 Z " fill="#6E8DAF" transform="translate(74,222)"/>
<path d="M0 0 C0.33 0.33 0.66 0.66 1 1 C0.71269945 3.33944736 0.38063221 5.6739143 0 8 C-1.81495662 7.55149342 -3.62693134 7.09090429 -5.4375 6.625 C-6.44683594 6.36976563 -7.45617187 6.11453125 -8.49609375 5.8515625 C-11 5 -11 5 -12 3 C-12.99 3 -13.98 3 -15 3 C-14.67 1.68 -14.34 0.36 -14 -1 C-9.11654007 -2.57530966 -4.78167814 -1.44240704 0 0 Z " fill="#165C92" transform="translate(238,263)"/>
<path d="M0 0 C0.33 0.66 0.66 1.32 1 2 C1.66 2 2.32 2 3 2 C5.15026758 7.30399335 6.10898285 11.22390888 6 17 C1.125 16.125 1.125 16.125 0 15 C-2.05396726 15.40929986 -2.05396726 15.40929986 -4 16 C-4.3690205 6.58997722 -4.3690205 6.58997722 -2 2 C-1.34 2 -0.68 2 0 2 C0 1.34 0 0.68 0 0 Z " fill="#226DA5" transform="translate(313,223)"/>
<path d="M0 0 C0.33 0 0.66 0 1 0 C1.33 6.6 1.66 13.2 2 20 C3.65 19.67 5.3 19.34 7 19 C9.45703125 19.12109375 9.45703125 19.12109375 11.8125 19.4375 C12.60269531 19.53933594 13.39289063 19.64117187 14.20703125 19.74609375 C14.79871094 19.82988281 15.39039063 19.91367187 16 20 C16 19.01 16 18.02 16 17 C16.99 16.67 17.98 16.34 19 16 C19.125 18.375 19.125 18.375 19 21 C17 23 17 23 13.375 23.23046875 C11.9166018 23.22647678 10.45820257 23.2117184 9 23.1875 C8.26265625 23.18685547 7.5253125 23.18621094 6.765625 23.18554688 C1.28101809 23.14050904 1.28101809 23.14050904 -1 22 C-0.67 14.74 -0.34 7.48 0 0 Z " fill="#598EB5" transform="translate(296,271)"/>
<path d="M0 0 C0.33 0 0.66 0 1 0 C1 8.25 1 16.5 1 25 C-0.98 25 -2.96 25 -5 25 C-5.22084624 18.90218999 -5.01167675 13.78357065 -3 8 C-2.34 8 -1.68 8 -1 8 C-0.67 5.36 -0.34 2.72 0 0 Z " fill="#0F5995" transform="translate(262,224)"/>
<path d="M0 0 C3.44955326 2.29970217 3.58770271 3.03358036 4.625 6.875 C4.86476563 7.73867187 5.10453125 8.60234375 5.3515625 9.4921875 C5.91181852 11.65896078 6.46433615 13.827024 7 16 C6.01 15.67 5.02 15.34 4 15 C3.34 11.7 2.68 8.4 2 5 C1.01 4.67 0.02 4.34 -1 4 C-1 6.31 -1 8.62 -1 11 C-3 9 -3 9 -4 6 C-4.66 7.98 -5.32 9.96 -6 12 C-4.35 12 -2.7 12 -1 12 C-1 12.33 -1 12.66 -1 13 C-3.64 13 -6.28 13 -9 13 C-9 12.34 -9 11.68 -9 11 C-10.32 10.67 -11.64 10.34 -13 10 C-13 9.34 -13 8.68 -13 8 C-12.01 7.67 -11.02 7.34 -10 7 C-10 7.66 -10 8.32 -10 9 C-9.01 9 -8.02 9 -7 9 C-7 7.02 -7 5.04 -7 3 C-5.35 3 -3.7 3 -2 3 C-2 2.34 -2 1.68 -2 1 C-1.34 0.67 -0.68 0.34 0 0 Z " fill="#4A7EAB" transform="translate(413,225)"/>
<path d="M0 0 C1.65 0 3.3 0 5 0 C5 9.57 5 19.14 5 29 C4.67 29 4.34 29 4 29 C3.67 26.69 3.34 24.38 3 22 C2.34 22 1.68 22 1 22 C0.67 14.74 0.34 7.48 0 0 Z " fill="#0D609B" transform="translate(270,220)"/>
<path d="M0 0 C2.3125 -0.3125 2.3125 -0.3125 5 0 C8.19714084 3.78920396 8.95687997 8.26583987 10 13 C7.525 12.01 7.525 12.01 5 11 C5 10.34 5 9.68 5 9 C3.02 9.33 1.04 9.66 -1 10 C-1 9.34 -1 8.68 -1 8 C-0.34 8 0.32 8 1 8 C1 7.01 1 6.02 1 5 C0.34 4.67 -0.32 4.34 -1 4 C-0.67 2.68 -0.34 1.36 0 0 Z " fill="#1E669D" transform="translate(219,218)"/>
<path d="M0 0 C0.33 0 0.66 0 1 0 C1 2.64 1 5.28 1 8 C1.99 7.67 2.98 7.34 4 7 C5.89470816 6.9314505 7.7916834 6.91519628 9.6875 6.9375 C10.68136719 6.94652344 11.67523438 6.95554688 12.69921875 6.96484375 C13.83810547 6.98224609 13.83810547 6.98224609 15 7 C14.67 7.66 14.34 8.32 14 9 C7.25 9.125 7.25 9.125 5 8 C4.34 10.31 3.68 12.62 3 15 C0.69 15 -1.62 15 -4 15 C-3.32584613 9.7415998 -1.75734451 4.97361654 0 0 Z " fill="#4679A3" transform="translate(399,235)"/>
<path d="M0 0 C6 6 6 6 6.09765625 8.72265625 C6.08605469 9.82480469 6.07445312 10.92695313 6.0625 12.0625 C6.05347656 13.16722656 6.04445312 14.27195312 6.03515625 15.41015625 C6.02355469 16.26480469 6.01195312 17.11945313 6 18 C5.67 18 5.34 18 5 18 C4.67 15.69 4.34 13.38 4 11 C2.68 10.67 1.36 10.34 0 10 C0 11.98 0 13.96 0 16 C-0.66 16 -1.32 16 -2 16 C-2.99 12.7 -3.98 9.4 -5 6 C-3.68 6.33 -2.36 6.66 -1 7 C-0.67 4.69 -0.34 2.38 0 0 Z " fill="#4683AE" transform="translate(239,264)"/>
<path d="M0 0 C-0.33 5.28 -0.66 10.56 -1 16 C-5 14 -5 14 -6 11 C-6.0685495 9.10529184 -6.08480372 7.2083166 -6.0625 5.3125 C-6.05347656 4.31863281 -6.04445312 3.32476562 -6.03515625 2.30078125 C-6.02355469 1.54152344 -6.01195312 0.78226562 -6 0 C-3 -1 -3 -1 0 0 Z " fill="#105B98" transform="translate(210,263)"/>
<path d="M0 0 C0.99 0 1.98 0 3 0 C2.98839844 0.68707031 2.97679687 1.37414062 2.96484375 2.08203125 C2.95582031 2.98308594 2.94679687 3.88414062 2.9375 4.8125 C2.92589844 5.70582031 2.91429687 6.59914063 2.90234375 7.51953125 C2.88990033 10.13413791 2.88990033 10.13413791 4 13 C3.01 13.495 3.01 13.495 2 14 C1.34786708 16.02463255 1.34786708 16.02463255 1 18 C1.99 17.67 2.98 17.34 4 17 C4.33 18.98 4.66 20.96 5 23 C-2.80251346 18.87791741 -2.80251346 18.87791741 -5 15 C-5 14.34 -5 13.68 -5 13 C-3.35 13 -1.7 13 0 13 C0 8.71 0 4.42 0 0 Z " fill="#4F87B0" transform="translate(221,271)"/>
<path d="M0 0 C0.33 0 0.66 0 1 0 C1 2.31 1 4.62 1 7 C3.33075929 6.04134491 3.33075929 6.04134491 5 3 C5.33 4.65 5.66 6.3 6 8 C6.33 6.68 6.66 5.36 7 4 C9.21538462 10.4 9.21538462 10.4 8.125 13.4375 C7.75375 13.953125 7.3825 14.46875 7 15 C4.625 14.75 4.625 14.75 2 14 C-0.0728552 10.91872876 -0.22112945 8.40291922 -0.125 4.75 C-0.09792969 3.41195312 -0.09792969 3.41195312 -0.0703125 2.046875 C-0.04710937 1.37140625 -0.02390625 0.6959375 0 0 Z " fill="#216398" transform="translate(310,231)"/>
<path d="M0 0 C5.2953712 -0.50432107 7.86704506 0.71242221 12 4 C14 7 14 7 14 10 C11.36 10 8.72 10 6 10 C6 9.34 6 8.68 6 8 C4.68 7.67 3.36 7.34 2 7 C3.65 7 5.3 7 7 7 C7 6.34 7 5.68 7 5 C6.01 5 5.02 5 4 5 C4.33 4.34 4.66 3.68 5 3 C3.55802132 1.55802132 1.82308429 0.88213756 0 0 Z " fill="#155D97" transform="translate(324,218)"/>
<path d="M0 0 C3.875 1.875 3.875 1.875 5 3 C5.07179964 4.51928038 5.08392007 6.04167482 5.0625 7.5625 C5.05347656 8.38878906 5.04445312 9.21507812 5.03515625 10.06640625 C5.02355469 10.70449219 5.01195312 11.34257812 5 12 C4.67 11.34 4.34 10.68 4 10 C2.68 10 1.36 10 0 10 C0 9.34 0 8.68 0 8 C-2.31 7.34 -4.62 6.68 -7 6 C-6.21625 5.38125 -5.4325 4.7625 -4.625 4.125 C-2.03162353 2.10141339 -2.03162353 2.10141339 0 0 Z " fill="#306DA1" transform="translate(202,220)"/>
<path d="M0 0 C2.475 0.99 2.475 0.99 5 2 C5.33 1.34 5.66 0.68 6 0 C6 2.97 6 5.94 6 9 C5.34 9 4.68 9 4 9 C3.67 10.32 3.34 11.64 3 13 C2.01 13 1.02 13 0 13 C-0.33 11.02 -0.66 9.04 -1 7 C-0.34 7 0.32 7 1 7 C0.67 4.69 0.34 2.38 0 0 Z " fill="#105A97" transform="translate(238,273)"/>
<path d="M0 0 C0.99 0.495 0.99 0.495 2 1 C3.26277143 6.6938137 2.94533408 12.15098495 2.5625 17.9375 C2.51029297 18.81212891 2.45808594 19.68675781 2.40429688 20.58789062 C2.2757979 22.72564632 2.13877359 24.86288669 2 27 C1.34 27.33 0.68 27.66 0 28 C0 18.76 0 9.52 0 0 Z " fill="#5283AB" transform="translate(209,261)"/>
<path d="M0 0 C0.66 0 1.32 0 2 0 C2 0.66 2 1.32 2 2 C2.66 2.33 3.32 2.66 4 3 C3.34 3 2.68 3 2 3 C1.67 5.97 1.34 8.94 1 12 C0.67 12 0.34 12 0 12 C-0.33 13.65 -0.66 15.3 -1 17 C-1.66 16.67 -2.32 16.34 -3 16 C-4.38315917 9.82898219 -3.95115377 6.56178979 -1 1 C-0.67 0.67 -0.34 0.34 0 0 Z " fill="#3674A3" transform="translate(218,267)"/>
<path d="M0 0 C-2.64738916 1.4606285 -3.89448334 2 -7 2 C-8.14814997 4.29629994 -8.30769809 6.07698086 -8.5625 8.625 C-8.64628906 9.44226563 -8.73007812 10.25953125 -8.81640625 11.1015625 C-8.87699219 11.72804688 -8.93757813 12.35453125 -9 13 C-10.32 13.33 -11.64 13.66 -13 14 C-13.7717869 5.01297031 -13.7717869 5.01297031 -11 1.375 C-7.02762756 -0.4456707 -4.34041334 -0.29426531 0 0 Z " fill="#1F67A4" transform="translate(268,268)"/>
<path d="M0 0 C0.33 0 0.66 0 1 0 C1 1.65 1 3.3 1 5 C4.63 5 8.26 5 12 5 C12 7.31 12 9.62 12 12 C8.7 12.33 5.4 12.66 2 13 C2 12.34 2 11.68 2 11 C4.97 11 7.94 11 11 11 C11 9.35 11 7.7 11 6 C9.35 6.33 7.7 6.66 6 7 C5.67 7.99 5.34 8.98 5 10 C3.35 9.67 1.7 9.34 0 9 C-1.10844919 5.67465243 -0.84454356 3.37817425 0 0 Z " fill="#4D85B2" transform="translate(277,269)"/>
<path d="M0 0 C0.33 0 0.66 0 1 0 C1 3.96 1 7.92 1 12 C2.32 12 3.64 12 5 12 C4.95875 10.7625 4.9175 9.525 4.875 8.25 C4.86341709 4.98362038 5.1431298 2.7853053 7 0 C8 2 8 2 7.5 5.375 C7.06882966 8.50098494 6.96102267 10.11395187 8 13 C5.8125 14.125 5.8125 14.125 3 15 C0.525 14.01 0.525 14.01 -2 13 C-1.34 8.71 -0.68 4.42 0 0 Z " fill="#6F98B9" transform="translate(429,236)"/>
<path d="M0 0 C2.97 0.495 2.97 0.495 6 1 C6 1.66 6 2.32 6 3 C7.32 3 8.64 3 10 3 C9.67 4.65 9.34 6.3 9 8 C6.625 8.625 6.625 8.625 4 9 C3.34 8.34 2.68 7.68 2 7 C2 6.34 2 5.68 2 5 C1.34 5 0.68 5 0 5 C0 3.35 0 1.7 0 0 Z " fill="#2269A4" transform="translate(222,284)"/>
<path d="M0 0 C0 0.33 0 0.66 0 1 C-1.051875 1.268125 -2.10375 1.53625 -3.1875 1.8125 C-8.71816027 3.53516468 -12.01412537 5.89334129 -16 10 C-17.97153395 11.70379477 -19.9829505 13.34968677 -22 15 C-22 11.06830895 -20.60580385 9.83572772 -18 7 C-17.34 7 -16.68 7 -16 7 C-16 6.34 -16 5.68 -16 5 C-5.62642369 -0.74031891 -5.62642369 -0.74031891 0 0 Z " fill="#6892B7" transform="translate(110,196)"/>
<path d="M0 0 C0.33 0.66 0.66 1.32 1 2 C1.66 2 2.32 2 3 2 C3 5.96 3 9.92 3 14 C2.67 14 2.34 14 2 14 C2 10.37 2 6.74 2 3 C0.35 3 -1.3 3 -3 3 C-3 5.64 -3 8.28 -3 11 C-3.66 11 -4.32 11 -5 11 C-5 13.64 -5 16.28 -5 19 C-5.33 19 -5.66 19 -6 19 C-6.02684679 16.35409986 -6.04676357 13.70846904 -6.0625 11.0625 C-6.07087891 10.30775391 -6.07925781 9.55300781 -6.08789062 8.77539062 C-6.09652441 6.85005687 -6.05224333 4.92464419 -6 3 C-5 2 -5 2 -2.4375 1.9375 C-1.2309375 1.9684375 -1.2309375 1.9684375 0 2 C0 1.34 0 0.68 0 0 Z " fill="#6D8EC0" transform="translate(191,261)"/>
<path d="M0 0 C0 0.66 0 1.32 0 2 C1.32 1.67 2.64 1.34 4 1 C5.26977059 4.80931176 4.52074507 6.81618993 3.5625 10.6875 C3.27503906 11.86699219 2.98757812 13.04648437 2.69140625 14.26171875 C2.46324219 15.16535156 2.23507813 16.06898438 2 17 C1.67 17 1.34 17 1 17 C1 12.71 1 8.42 1 4 C0.34 4 -0.32 4 -1 4 C-1 3.34 -1 2.68 -1 2 C-2.45880109 2.14107747 -3.91703551 2.28802415 -5.375 2.4375 C-6.18710938 2.51871094 -6.99921875 2.59992188 -7.8359375 2.68359375 C-10.04272805 2.89090114 -10.04272805 2.89090114 -12 4 C-12 3.01 -12 2.02 -12 1 C-10.37512529 0.83211627 -8.75009558 0.66573213 -7.125 0.5 C-6.22007813 0.4071875 -5.31515625 0.314375 -4.3828125 0.21875 C-2 0 -2 0 0 0 Z " fill="#457BA6" transform="translate(128,265)"/>
<path d="M0 0 C1.79244141 0.01740234 1.79244141 0.01740234 3.62109375 0.03515625 C5.41740234 0.04869141 5.41740234 0.04869141 7.25 0.0625 C8.17683594 0.07410156 9.10367188 0.08570313 10.05859375 0.09765625 C9.06859375 1.58265625 9.06859375 1.58265625 8.05859375 3.09765625 C5.67578125 3.390625 5.67578125 3.390625 2.93359375 3.28515625 C1.32484375 3.22328125 -0.28390625 3.16140625 -1.94140625 3.09765625 C-1.94140625 8.70765625 -1.94140625 14.31765625 -1.94140625 20.09765625 C-2.27140625 20.09765625 -2.60140625 20.09765625 -2.94140625 20.09765625 C-3.13735301 16.95228857 -3.32174635 13.80635011 -3.50390625 10.66015625 C-3.55998047 9.76232422 -3.61605469 8.86449219 -3.67382812 7.93945312 C-3.72216797 7.08544922 -3.77050781 6.23144531 -3.8203125 5.3515625 C-3.86744385 4.56080322 -3.9145752 3.77004395 -3.96313477 2.95532227 C-3.92622054 -0.20063681 -3.16409989 0.1050498 0 0 Z " fill="#588DB6" transform="translate(141.94140625,233.90234375)"/>
<path d="M0 0 C0.66 0.33 1.32 0.66 2 1 C1.67 1.66 1.34 2.32 1 3 C2.32 2.67 3.64 2.34 5 2 C5 4.97 5 7.94 5 11 C4.01 11 3.02 11 2 11 C2 10.34 2 9.68 2 9 C1.01 9 0.02 9 -1 9 C-1 7.35 -1 5.7 -1 4 C-1.66 3.67 -2.32 3.34 -3 3 C-2.34 3 -1.68 3 -1 3 C-0.67 2.01 -0.34 1.02 0 0 Z " fill="#0B63A1" transform="translate(108,247)"/>
<path d="M0 0 C0.66 0 1.32 0 2 0 C3.21521251 8.11388044 2.76299944 15.85351368 2 24 C1.34 24 0.68 24 0 24 C0 16.08 0 8.16 0 0 Z " fill="#215B91" transform="translate(130,276)"/>
<path d="M0 0 C3.3 0 6.6 0 10 0 C10 2.64 10 5.28 10 8 C4.06 8 -1.88 8 -8 8 C-8 7.34 -8 6.68 -8 6 C-0.08 5.505 -0.08 5.505 8 5 C8.33 3.68 8.66 2.36 9 1 C6.03 1 3.06 1 0 1 C0 0.67 0 0.34 0 0 Z " fill="#4875A2" transform="translate(382,242)"/>
<path d="M0 0 C2.625 0.375 2.625 0.375 5 1 C5.66 2.98 6.32 4.96 7 7 C6.34 7.66 5.68 8.32 5 9 C4.67 7.02 4.34 5.04 4 3 C3.01 5.64 2.02 8.28 1 11 C0.01 10.34 -0.98 9.68 -2 9 C-2.3125 5.5 -2.3125 5.5 -2 2 C-1.34 1.34 -0.68 0.68 0 0 Z " fill="#23639A" transform="translate(301,218)"/>
<path d="M0 0 C1.65 0 3.3 0 5 0 C5 0.66 5 1.32 5 2 C5.99 2.33 6.98 2.66 8 3 C6.625 4.5 6.625 4.5 5 6 C4.34 6 3.68 6 3 6 C2.67 7.65 2.34 9.3 2 11 C2.66 11.33 3.32 11.66 4 12 C2.35 12 0.7 12 -1 12 C-0.67 10.68 -0.34 9.36 0 8 C-0.66 7.67 -1.32 7.34 -2 7 C-2 6.34 -2 5.68 -2 5 C-0.35 4.34 1.3 3.68 3 3 C3 2.34 3 1.68 3 1 C2.01 0.67 1.02 0.34 0 0 Z " fill="#4781AF" transform="translate(329,238)"/>
<path d="M0 0 C0.66 0.33 1.32 0.66 2 1 C2 4.63 2 8.26 2 12 C5.3 12 8.6 12 12 12 C12 12.33 12 12.66 12 13 C8.04 13 4.08 13 0 13 C0 11.02 0 9.04 0 7 C-0.99 7 -1.98 7 -3 7 C-3 3 -3 3 -1.5 1.25 C-1.005 0.8375 -0.51 0.425 0 0 Z " fill="#5386B7" transform="translate(244,219)"/>
<path d="M0 0 C1.65 0 3.3 0 5 0 C3.78763672 0.85658203 3.78763672 0.85658203 2.55078125 1.73046875 C-1.62094127 5.90219127 -0.78342571 11.78515474 -0.8125 17.3125 C-0.83763672 18.43462891 -0.86277344 19.55675781 -0.88867188 20.71289062 C-0.9474532 23.47561286 -0.9837998 26.23675392 -1 29 C0.32 28.67 1.64 28.34 3 28 C3 28.66 3 29.32 3 30 C1.35 30 -0.3 30 -2 30 C-2.05805933 25.75005737 -2.09361654 21.50021676 -2.125 17.25 C-2.14175781 16.0434375 -2.15851563 14.836875 -2.17578125 13.59375 C-2.18222656 12.43359375 -2.18867188 11.2734375 -2.1953125 10.078125 C-2.20578613 9.00981445 -2.21625977 7.94150391 -2.22705078 6.84082031 C-2.00161519 4.02020895 -1.45848994 2.39212537 0 0 Z " fill="#1A5283" transform="translate(284,219)"/>
<path d="M0 0 C1.54571278 2.31856917 2.79618552 4.50638429 4 7 C4.94875 6.95875 5.8975 6.9175 6.875 6.875 C10 7 10 7 12 9 C12.1953125 11.1640625 12.1953125 11.1640625 12.125 13.625 C12.10695312 14.44226563 12.08890625 15.25953125 12.0703125 16.1015625 C12.03550781 17.04128906 12.03550781 17.04128906 12 18 C11.67 18 11.34 18 11 18 C11 15.36 11 12.72 11 10 C9.741875 10.226875 8.48375 10.45375 7.1875 10.6875 C3.29609051 11.17047635 3.29609051 11.17047635 0.9375 9.8125 C0 8 0 8 0.3125 5.8125 C0.539375 5.214375 0.76625 4.61625 1 4 C0.34 4 -0.32 4 -1 4 C-0.67 2.68 -0.34 1.36 0 0 Z " fill="#497EA9" transform="translate(159,212)"/>
<path d="M0 0 C0.33 0 0.66 0 1 0 C1 4.29 1 8.58 1 13 C-4 14 -4 14 -5.80078125 12.88671875 C-7.38556377 10.39339641 -7.30170083 8.74365456 -7.1875 5.8125 C-7.16042969 4.91144531 -7.13335937 4.01039063 -7.10546875 3.08203125 C-7.07066406 2.39496094 -7.03585938 1.70789063 -7 1 C-6.67 1 -6.34 1 -6 1 C-5.67 3.64 -5.34 6.28 -5 9 C-3.35 9.33 -1.7 9.66 0 10 C0 6.7 0 3.4 0 0 Z " fill="#6A91B2" transform="translate(192,280)"/>
<path d="M0 0 C0.02698189 1.62490954 0.04638757 3.24994633 0.0625 4.875 C0.07410156 5.77992188 0.08570313 6.68484375 0.09765625 7.6171875 C0 10 0 10 -1 12 C-2.32 12 -3.64 12 -5 12 C-5.125 6.25 -5.125 6.25 -4 4 C-3.67 3.01 -3.34 2.02 -3 1 C-1 0 -1 0 0 0 Z " fill="#0E5F9F" transform="translate(222,272)"/>
<path d="M0 0 C0.86625 0.37125 0.86625 0.37125 1.75 0.75 C0.76 1.08 -0.23 1.41 -1.25 1.75 C-3.65119059 5.35178588 -3.68771322 8.25866369 -3.875 12.4375 C-3.91367188 13.13939453 -3.95234375 13.84128906 -3.9921875 14.56445312 C-4.0862334 16.29254655 -4.1691968 18.02123675 -4.25 19.75 C-5.24 19.42 -6.23 19.09 -7.25 18.75 C-7.18981939 16.33073961 -7.10277783 13.91751328 -7 11.5 C-6.98582031 10.81808594 -6.97164062 10.13617188 -6.95703125 9.43359375 C-6.78911465 5.97451171 -6.46545316 4.03256153 -4.34375 1.25 C-2.25 -0.25 -2.25 -0.25 0 0 Z " fill="#14568C" transform="translate(143.25,265.25)"/>
<path d="M0 0 C1.98 0.99 1.98 0.99 4 2 C3.814375 2.845625 3.62875 3.69125 3.4375 4.5625 C2.96470368 8.2773282 3.33935369 11.32974273 4 15 C3.01 15.33 2.02 15.66 1 16 C-0.14077657 12.57767028 -0.09815117 9.91326783 -0.0625 6.3125 C-0.05347656 5.13300781 -0.04445313 3.95351563 -0.03515625 2.73828125 C-0.02355469 1.83464844 -0.01195312 0.93101562 0 0 Z " fill="#0E609F" transform="translate(273,265)"/>
<path d="M0 0 C2.35953094 2.35953094 2.49141413 3.77895617 3 7 C3.66 7 4.32 7 5 7 C5.33 5.35 5.66 3.7 6 2 C6.66 2 7.32 2 8 2 C8.33 3.98 8.66 5.96 9 8 C7.35 8 5.7 8 4 8 C4 8.66 4 9.32 4 10 C2.35 10 0.7 10 -1 10 C-1 9.34 -1 8.68 -1 8 C-0.34 7.67 0.32 7.34 1 7 C0.67 4.69 0.34 2.38 0 0 Z " fill="#3D84B7" transform="translate(357,231)"/>
<path d="M0 0 C1.98 0 3.96 0 6 0 C6.33 0.99 6.66 1.98 7 3 C6.34 3 5.68 3 5 3 C4.67 4.98 4.34 6.96 4 9 C2.35 8.67 0.7 8.34 -1 8 C-1 7.01 -1 6.02 -1 5 C0.32 4.34 1.64 3.68 3 3 C2.01 2.67 1.02 2.34 0 2 C0 1.34 0 0.68 0 0 Z " fill="#276DA4" transform="translate(166,299)"/>
<path d="M0 0 C0.66 0.66 1.32 1.32 2 2 C1.01 2 0.02 2 -1 2 C-1 2.66 -1 3.32 -1 4 C0.65 4 2.3 4 4 4 C4 3.34 4 2.68 4 2 C5.32 2 6.64 2 8 2 C7 5 7 5 4.9375 6.3125 C0.76775283 7.28839827 -1.9253828 6.24310355 -6 5 C-5.25 3.0625 -5.25 3.0625 -4 1 C-2 0.125 -2 0.125 0 0 Z " fill="#155992" transform="translate(357,237)"/>
<path d="M0 0 C3.3 0 6.6 0 10 0 C10 0.66 10 1.32 10 2 C9.34 2 8.68 2 8 2 C7.67 3.32 7.34 4.64 7 6 C6.34 6 5.68 6 5 6 C5 6.66 5 7.32 5 8 C6.32 8.33 7.64 8.66 9 9 C6.69 9 4.38 9 2 9 C2.66 6.36 3.32 3.72 4 1 C2.68 0.67 1.36 0.34 0 0 Z " fill="#175C94" transform="translate(117,257)"/>
<path d="M0 0 C0.66 0.33 1.32 0.66 2 1 C2 2.32 2 3.64 2 5 C2.69867188 4.90460938 3.39734375 4.80921875 4.1171875 4.7109375 C5.02726563 4.60007813 5.93734375 4.48921875 6.875 4.375 C7.77992188 4.25898438 8.68484375 4.14296875 9.6171875 4.0234375 C10.40351563 4.01570312 11.18984375 4.00796875 12 4 C12.66 4.66 13.32 5.32 14 6 C13.625 8.125 13.625 8.125 13 10 C12.67 8.68 12.34 7.36 12 6 C10.89591797 6.12568359 10.89591797 6.12568359 9.76953125 6.25390625 C8.79371094 6.35574219 7.81789062 6.45757812 6.8125 6.5625 C5.84957031 6.66691406 4.88664063 6.77132812 3.89453125 6.87890625 C1.05766623 6.99758751 -1.25423671 6.67765639 -4 6 C-4 5.01 -4 4.02 -4 3 C-2.68 2.67 -1.36 2.34 0 2 C0 1.34 0 0.68 0 0 Z " fill="#598CB7" transform="translate(125,167)"/>
<path d="M0 0 C3.96 0 7.92 0 12 0 C11.01 0.495 11.01 0.495 10 1 C10 1.99 10 2.98 10 4 C7.03 4 4.06 4 1 4 C0.67 2.68 0.34 1.36 0 0 Z " fill="#0F5591" transform="translate(302,287)"/>
<path d="M0 0 C0.66 0 1.32 0 2 0 C2.33 6.6 2.66 13.2 3 20 C2.01 19.34 1.02 18.68 0 18 C-0.34057617 16.12060547 -0.34057617 16.12060547 -0.29296875 13.8671875 C-0.28330078 13.06152344 -0.27363281 12.25585938 -0.26367188 11.42578125 C-0.23853516 10.58402344 -0.21339844 9.74226562 -0.1875 8.875 C-0.17396484 8.02550781 -0.16042969 7.17601562 -0.14648438 6.30078125 C-0.11108219 4.20025163 -0.05727401 2.10004707 0 0 Z " fill="#40759F" transform="translate(113,237)"/>
<path d="M0 0 C2.97 0 5.94 0 9 0 C9 1.98 9 3.96 9 6 C6.69 6 4.38 6 2 6 C2 4.68 2 3.36 2 2 C1.34 1.34 0.68 0.68 0 0 Z " fill="#2C679B" transform="translate(260,262)"/>
<path d="M0 0 C2 1 2 1 3 2 C3.04080783 3.99958364 3.04254356 6.00045254 3 8 C0.6875 8.625 0.6875 8.625 -2 9 C-2.99 8.34 -3.98 7.68 -5 7 C-4.0409375 6.1028125 -4.0409375 6.1028125 -3.0625 5.1875 C-0.79689611 3.09189663 -0.79689611 3.09189663 0 0 Z " fill="#115B98" transform="translate(433,227)"/>
<path d="M0 0 C-3.07999946 3.67230705 -5.2482602 4.56802365 -10 5 C-10.33 5.99 -10.66 6.98 -11 8 C-10.67 6.35 -10.34 4.7 -10 3 C-9.34 3 -8.68 3 -8 3 C-8 2.34 -8 1.68 -8 1 C-9.65 0.67 -11.3 0.34 -13 0 C-13 -0.33 -13 -0.66 -13 -1 C-11.58566794 -1.2236337 -10.16832382 -1.42826476 -8.75 -1.625 C-7.56664062 -1.79902344 -7.56664062 -1.79902344 -6.359375 -1.9765625 C-3.67847541 -2.00319395 -2.27305911 -1.36592084 0 0 Z " fill="#0E5A96" transform="translate(203,221)"/>
<path d="M0 0 C1.65 0 3.3 0 5 0 C5 9.57 5 19.14 5 29 C4.67 29 4.34 29 4 29 C3.67 20.42 3.34 11.84 3 3 C2.34 3 1.68 3 1 3 C0.67 2.01 0.34 1.02 0 0 Z " fill="#185187" transform="translate(270,220)"/>
<path d="M0 0 C0.33 0 0.66 0 1 0 C1.33 6.93 1.66 13.86 2 21 C4.475 21.99 4.475 21.99 7 23 C7 23.33 7 23.66 7 24 C4.69 24 2.38 24 0 24 C-1.27491216 21.45017567 -1.02596616 19.83534576 -0.87890625 16.9921875 C-0.83056641 16.00605469 -0.78222656 15.01992188 -0.73242188 14.00390625 C-0.67634766 12.97136719 -0.62027344 11.93882812 -0.5625 10.875 C-0.51029297 9.83472656 -0.45808594 8.79445313 -0.40429688 7.72265625 C-0.27439054 5.14814884 -0.13941748 2.57400704 0 0 Z " fill="#87A9C4" transform="translate(253,269)"/>
<path d="M0 0 C0.33 0.66 0.66 1.32 1 2 C1.66 2 2.32 2 3 2 C3.33 1.34 3.66 0.68 4 0 C4 2.97 4 5.94 4 9 C2.02 8.34 0.04 7.68 -2 7 C-1.34 4.69 -0.68 2.38 0 0 Z " fill="#0F5794" transform="translate(256,283)"/>
<path d="M0 0 C-0.33 2.97 -0.66 5.94 -1 9 C-3 7 -3 7 -3.125 3.875 C-3.08375 2.92625 -3.0425 1.9775 -3 1 C-4.94074861 1.27617533 -4.94074861 1.27617533 -7 2 C-7.66 2.99 -8.32 3.98 -9 5 C-8.67 3.02 -8.34 1.04 -8 -1 C-4.23350139 -2.34517808 -3.97399267 -1.98699633 0 0 Z " fill="#2C6E9A" transform="translate(304,264)"/>
<path d="M0 0 C1.8125 1.5 1.8125 1.5 3 3 C2.01 4.485 2.01 4.485 1 6 C0.34 5.34 -0.32 4.68 -1 4 C-3.43252661 3.53837573 -3.43252661 3.53837573 -6.125 3.375 C-7.03507812 3.30023438 -7.94515625 3.22546875 -8.8828125 3.1484375 C-9.58148438 3.09945312 -10.28015625 3.05046875 -11 3 C-11 2.34 -11 1.68 -11 1 C-3.55769231 -0.38461538 -3.55769231 -0.38461538 0 0 Z " fill="#37719F" transform="translate(104,233)"/>
<path d="M0 0 C0.99 0.33 1.98 0.66 3 1 C4.1875 3.5625 4.1875 3.5625 5 6 C3.68 5.34 2.36 4.68 1 4 C0.34 5.65 -0.32 7.3 -1 9 C-1.33 8.34 -1.66 7.68 -2 7 C-2.66 7 -3.32 7 -4 7 C-3.39816251 4.97954558 -2.72693904 2.97888961 -2 1 C-1.34 0.67 -0.68 0.34 0 0 Z " fill="#2E73A8" transform="translate(288,220)"/>
<path d="M0 0 C0.66 0 1.32 0 2 0 C1.67372714 3.01802393 1.38918764 4.59691281 -0.75 6.8125 C-3.37152557 8.19608294 -5.07674878 8.24360427 -8 8 C-8 7.01 -8 6.02 -8 5 C-6.865625 4.54625 -5.73125 4.0925 -4.5625 3.625 C-0.95278308 2.42904194 -0.95278308 2.42904194 0 0 Z " fill="#2F71A6" transform="translate(242,282)"/>
<path d="M0 0 C0.66 0 1.32 0 2 0 C2.33 1.98 2.66 3.96 3 6 C2.01 5.67 1.02 5.34 0 5 C0.33 6.65 0.66 8.3 1 10 C-0.65 10.66 -2.3 11.32 -4 12 C-3.52309796 10.37433394 -3.04340334 8.74948689 -2.5625 7.125 C-2.29566406 6.22007812 -2.02882813 5.31515625 -1.75390625 4.3828125 C-1 2 -1 2 0 0 Z " fill="#4078A4" transform="translate(347,233)"/>
<path d="M0 0 C0.33 0 0.66 0 1 0 C1.335939 1.4577353 1.66866624 2.91621106 2 4.375 C2.185625 5.18710938 2.37125 5.99921875 2.5625 6.8359375 C3.06108615 9.30215827 3 11.47269713 3 14 C2.34 14 1.68 14 1 14 C1 14.66 1 15.32 1 16 C-1.31 16 -3.62 16 -6 16 C-5.67 15.34 -5.34 14.68 -5 14 C-3.68 14 -2.36 14 -1 14 C-0.67 9.38 -0.34 4.76 0 0 Z " fill="#759CB9" transform="translate(305,234)"/>
<path d="M0 0 C3.63 0.66 7.26 1.32 11 2 C12.25 8.625 12.25 8.625 10 12 C10 9.03 10 6.06 10 3 C6.7 3.33 3.4 3.66 0 4 C-0.33 4.99 -0.66 5.98 -1 7 C-0.67 4.69 -0.34 2.38 0 0 Z " fill="#7095B5" transform="translate(329,231)"/>
<path d="M0 0 C0.66 0.66 1.32 1.32 2 2 C1.9765625 4.1640625 1.9765625 4.1640625 1.625 6.625 C1.51414062 7.44226563 1.40328125 8.25953125 1.2890625 9.1015625 C1.19367188 9.72804687 1.09828125 10.35453125 1 11 C0.01 11.33 -0.98 11.66 -2 12 C-2.05422947 10.5629191 -2.09289723 9.12524538 -2.125 7.6875 C-2.14820313 6.88699219 -2.17140625 6.08648437 -2.1953125 5.26171875 C-2 3 -2 3 0 0 Z " fill="#0D63A0" transform="translate(377,219)"/>
<path d="M0 0 C2.31 0 4.62 0 7 0 C7.33 0.99 7.66 1.98 8 3 C4.25 4.125 4.25 4.125 2 3 C2.99 4.32 3.98 5.64 5 7 C4.34 7.66 3.68 8.32 3 9 C0.9375 6.1875 0.9375 6.1875 -1 3 C-0.67 2.01 -0.34 1.02 0 0 Z " fill="#4E7DAA" transform="translate(420,219)"/>
<path d="M0 0 C0.33 0 0.66 0 1 0 C1.33 5.94 1.66 11.88 2 18 C2.66 18.33 3.32 18.66 4 19 C3.01 19.33 2.02 19.66 1 20 C0.01 19.34 -0.98 18.68 -2 18 C-2.40843923 15.28796348 -2.13336867 12.7562858 -2 10 C-1.67 10 -1.34 10 -1 10 C-0.67 6.7 -0.34 3.4 0 0 Z " fill="#618CB8" transform="translate(92,238)"/>
<path d="M0 0 C1.32 0 2.64 0 4 0 C4 3.3 4 6.6 4 10 C3.01 9.67 2.02 9.34 1 9 C0.67 6.03 0.34 3.06 0 0 Z " fill="#0E5FA2" transform="translate(297,265)"/>
<path d="M0 0 C-0.33 2.31 -0.66 4.62 -1 7 C-3.9375 6.25 -3.9375 6.25 -7 5 C-7.875 2.875 -7.875 2.875 -8 1 C-1.125 0 -1.125 0 0 0 Z " fill="#18639D" transform="translate(239,264)"/>
<path d="M0 0 C3.3 0.66 6.6 1.32 10 2 C9.67 3.32 9.34 4.64 9 6 C5.37 5.34 1.74 4.68 -2 4 C-1.01 3.67 -0.02 3.34 1 3 C0.67 2.01 0.34 1.02 0 0 Z " fill="#105D9B" transform="translate(320,243)"/>
<path d="M0 0 C1.32 0 2.64 0 4 0 C4.6875 1.8125 4.6875 1.8125 5 4 C3.8125 5.75 3.8125 5.75 2 7 C0.68 7 -0.64 7 -2 7 C-1.125 2.25 -1.125 2.25 0 0 Z " fill="#2B6B9E" transform="translate(333,242)"/>
<path d="M0 0 C1.32 0.33 2.64 0.66 4 1 C4 2.65 4 4.3 4 6 C2.35 6 0.7 6 -1 6 C-1 7.98 -1 9.96 -1 12 C-1.99 12 -2.98 12 -4 12 C-3.33333333 9.33333333 -2.66666667 6.66666667 -2 4 C-1.34 4 -0.68 4 0 4 C0 2.68 0 1.36 0 0 Z " fill="#095C9F" transform="translate(407,222)"/>
<path d="M0 0 C1.98 0 3.96 0 6 0 C6.33 1.32 6.66 2.64 7 4 C3.25 7 3.25 7 1 7 C0.67 4.69 0.34 2.38 0 0 Z " fill="#336E9E" transform="translate(130,174)"/>
<path d="M0 0 C1.97909398 -0.02686553 3.95828971 -0.04633375 5.9375 -0.0625 C7.03964844 -0.07410156 8.14179688 -0.08570313 9.27734375 -0.09765625 C12 0 12 0 13 1 C13.04063832 2.66617115 13.042721 4.33388095 13 6 C12.34 6 11.68 6 11 6 C11 4.68 11 3.36 11 2 C7.37 2 3.74 2 0 2 C0 1.34 0 0.68 0 0 Z " fill="#527EA2" transform="translate(279,286)"/>
<path d="M0 0 C0.66 1.32 1.32 2.64 2 4 C1.67 4.66 1.34 5.32 1 6 C1.99 6.33 2.98 6.66 4 7 C4 6.34 4 5.68 4 5 C4.66 5 5.32 5 6 5 C6 6.32 6 7.64 6 9 C3.36 9 0.72 9 -2 9 C-1.34 6.03 -0.68 3.06 0 0 Z " fill="#608BAC" transform="translate(209,241)"/>
<path d="M0 0 C0.33 0 0.66 0 1 0 C1.49230769 7.38461538 1.49230769 7.38461538 -1 10.5 C-1.66 10.995 -2.32 11.49 -3 12 C-3.33 11.01 -3.66 10.02 -4 9 C-3.34 9 -2.68 9 -2 9 C-2.33 8.34 -2.66 7.68 -3 7 C-4.65 7 -6.3 7 -8 7 C-8 6.34 -8 5.68 -8 5 C-7.34 5 -6.68 5 -6 5 C-5.67 4.34 -5.34 3.68 -5 3 C-5 3.66 -5 4.32 -5 5 C-3.68 5 -2.36 5 -1 5 C-0.67 3.35 -0.34 1.7 0 0 Z " fill="#5F92B9" transform="translate(207,225)"/>
<path d="M0 0 C0.66 0 1.32 0 2 0 C2.33 2.31 2.66 4.62 3 7 C3.99 7.33 4.98 7.66 6 8 C6 8.66 6 9.32 6 10 C4.35 10 2.7 10 1 10 C-0.60725635 6.78548731 -0.05748185 3.56387464 0 0 Z " fill="#5684AA" transform="translate(74,222)"/>
<path d="M0 0 C0.66 0 1.32 0 2 0 C3.21693876 2.43387753 3.31959896 4.41838846 3.5625 7.125 C3.64628906 8.03507813 3.73007812 8.94515625 3.81640625 9.8828125 C3.87699219 10.58148438 3.93757813 11.28015625 4 12 C3.01 12 2.02 12 1 12 C0.67 11.34 0.34 10.68 0 10 C0.33 9.34 0.66 8.68 1 8 C0.34 8 -0.32 8 -1 8 C-0.67 5.36 -0.34 2.72 0 0 Z " fill="#1F639A" transform="translate(303,221)"/>
<path d="M0 0 C0.33 0 0.66 0 1 0 C1.33 3.3 1.66 6.6 2 10 C4.97 10.495 4.97 10.495 8 11 C5.16604069 13.32789515 3.70488428 14.07377893 0 15 C0 10.05 0 5.1 0 0 Z " fill="#11558D" transform="translate(192,264)"/>
<path d="M0 0 C0.66 0 1.32 0 2 0 C2 0.66 2 1.32 2 2 C4.31 2.33 6.62 2.66 9 3 C9.33 2.01 9.66 1.02 10 0 C10 1.65 10 3.3 10 5 C7.8125 5.8125 7.8125 5.8125 5 6 C2.1875 3.625 2.1875 3.625 0 1 C0 0.67 0 0.34 0 0 Z " fill="#2D6DA3" transform="translate(295,243)"/>
<path d="M0 0 C0.99 0.33 1.98 0.66 3 1 C3 1.66 3 2.32 3 3 C3.99 3 4.98 3 6 3 C6 3.66 6 4.32 6 5 C3.03 5 0.06 5 -3 5 C-2.67 3.68 -2.34 2.36 -2 1 C-1.34 0.67 -0.68 0.34 0 0 Z " fill="#145B95" transform="translate(325,220)"/>
<path d="M0 0 C0.33 1.32 0.66 2.64 1 4 C-2.1964086 5.06546953 -4.65747276 5.07427838 -8 5 C-8 6.32 -8 7.64 -8 9 C-9.32 8.34 -10.64 7.68 -12 7 C-11.67 5.68 -11.34 4.36 -11 3 C-7.7 3 -4.4 3 -1 3 C-0.67 2.01 -0.34 1.02 0 0 Z " fill="#6F9AB9" transform="translate(118,169)"/>
<path d="M0 0 C-0.66 1.32 -1.32 2.64 -2 4 C-2.33 3.67 -2.66 3.34 -3 3 C-4.51928038 2.92820036 -6.04167482 2.91607993 -7.5625 2.9375 C-8.80193359 2.95103516 -8.80193359 2.95103516 -10.06640625 2.96484375 C-11.02353516 2.98224609 -11.02353516 2.98224609 -12 3 C-12.33 3.66 -12.66 4.32 -13 5 C-13.66 4.67 -14.32 4.34 -15 4 C-15 3.01 -15 2.02 -15 1 C-12.8750734 0.83240016 -10.75005624 0.66594799 -8.625 0.5 C-7.44164063 0.4071875 -6.25828125 0.314375 -5.0390625 0.21875 C-3.36213157 0.09804546 -1.68126944 0 0 0 Z " fill="#3D76A3" transform="translate(106,265)"/>
<path d="M0 0 C1.76462683 3.08809695 2 4.23312136 2 8 C-0.31 8 -2.62 8 -5 8 C-5.66 6.02 -6.32 4.04 -7 2 C-6.01 2.33 -5.02 2.66 -4 3 C-4 3.66 -4 4.32 -4 5 C-2.68 5.33 -1.36 5.66 0 6 C0 4.02 0 2.04 0 0 Z " fill="#6896BB" transform="translate(233,242)"/>
<path d="M0 0 C2 2 2 2 2 6 C3.32 6 4.64 6 6 6 C6 6.66 6 7.32 6 8 C3.69 8.33 1.38 8.66 -1 9 C-0.67 6.03 -0.34 3.06 0 0 Z " fill="#618BB1" transform="translate(113,183)"/>
<path d="M0 0 C2 2 2 2 2.125 5.125 C2.08375 6.07375 2.0425 7.0225 2 8 C-0.31 8 -2.62 8 -5 8 C-5.66 6.68 -6.32 5.36 -7 4 C-6.34 3.67 -5.68 3.34 -5 3 C-5 3.99 -5 4.98 -5 6 C-3.35 6 -1.7 6 0 6 C0 4.02 0 2.04 0 0 Z " fill="#739CBE" transform="translate(420,242)"/>
<path d="M0 0 C0.66 0 1.32 0 2 0 C2.33 0.66 2.66 1.32 3 2 C5.01669827 3.13350534 5.01669827 3.13350534 7 4 C6.67 5.32 6.34 6.64 6 8 C5.01 8 4.02 8 3 8 C0 2.25 0 2.25 0 0 Z " fill="#115896" transform="translate(222,227)"/>
<path d="M0 0 C-0.99 0.33 -1.98 0.66 -3 1 C-2.79375 2.11375 -2.5875 3.2275 -2.375 4.375 C-2.25125 5.57125 -2.1275 6.7675 -2 8 C-2.66 8.66 -3.32 9.32 -4 10 C-4.33 7.69 -4.66 5.38 -5 3 C-5.66 3 -6.32 3 -7 3 C-6.67 2.01 -6.34 1.02 -6 0 C-3.42525708 -0.99667468 -2.51072708 -1.25536354 0 0 Z " fill="#155993" transform="translate(321,222)"/>
<path d="M0 0 C4.29 0 8.58 0 13 0 C13 0.66 13 1.32 13 2 C7.06 2.495 7.06 2.495 1 3 C0.67 2.01 0.34 1.02 0 0 Z " fill="#0D5FA3" transform="translate(401,239)"/>
<path d="M0 0 C0.61875 0.66 1.2375 1.32 1.875 2 C3.75637427 4.2284549 3.75637427 4.2284549 6 4 C6.33 3.34 6.66 2.68 7 2 C6.29445932 5.66881155 4.72264494 8.70450534 3 12 C2.67 12 2.34 12 2 12 C2 9.69 2 7.38 2 5 C1.34 4.67 0.68 4.34 0 4 C0 2.68 0 1.36 0 0 Z " fill="#4A7FA9" transform="translate(434,224)"/>
<path d="M0 0 C0.33 0.66 0.66 1.32 1 2 C1.66 2.33 2.32 2.66 3 3 C2.01 3 1.02 3 0 3 C0 4.65 0 6.3 0 8 C-0.99 8 -1.98 8 -3 8 C-3 10.64 -3 13.28 -3 16 C-3.33 16 -3.66 16 -4 16 C-4.3690205 6.58997722 -4.3690205 6.58997722 -2 2 C-1.34 2 -0.68 2 0 2 C0 1.34 0 0.68 0 0 Z " fill="#7AA3C4" transform="translate(313,223)"/>
<path d="M0 0 C3.93673644 1.31224548 6.22719294 2.91910327 9 6 C7.125 7.0625 7.125 7.0625 5 8 C4.34 7.67 3.68 7.34 3 7 C3.33 6.34 3.66 5.68 4 5 C3.34 4.360625 2.68 3.72125 2 3.0625 C0 1 0 1 0 0 Z " fill="#4B81AC" transform="translate(146,199)"/>
<path d="M0 0 C2.97 0 5.94 0 9 0 C9 0.99 9 1.98 9 3 C6.03 3 3.06 3 0 3 C0 2.01 0 1.02 0 0 Z " fill="#105D99" transform="translate(281,288)"/>
<path d="M0 0 C3.25543229 0.34879632 4.01873107 1.02133261 6.25 3.5625 C6.8275 4.366875 7.405 5.17125 8 6 C5.69 6 3.38 6 1 6 C0.67 4.02 0.34 2.04 0 0 Z " fill="#4D7A9D" transform="translate(245,263)"/>
<path d="M0 0 C1.98 0 3.96 0 6 0 C5.34 2.31 4.68 4.62 4 7 C3.34 7 2.68 7 2 7 C1.34 4.69 0.68 2.38 0 0 Z " fill="#165F98" transform="translate(358,231)"/>
<path d="M0 0 C0 0.99 0 1.98 0 3 C0.99 3.33 1.98 3.66 3 4 C0.75 5.1875 0.75 5.1875 -2 6 C-4.3125 4.75 -4.3125 4.75 -6 3 C-6 2.34 -6 1.68 -6 1 C-4 0 -4 0 0 0 Z " fill="#2470A2" transform="translate(81,219)"/>
<path d="M0 0 C0.33 0 0.66 0 1 0 C1.04254356 1.99954746 1.04080783 4.00041636 1 6 C0 7 0 7 -2.50390625 7.09765625 C-4.01791016 7.08025391 -4.01791016 7.08025391 -5.5625 7.0625 C-6.57441406 7.05347656 -7.58632812 7.04445313 -8.62890625 7.03515625 C-9.41136719 7.02355469 -10.19382812 7.01195312 -11 7 C-11 6.67 -11 6.34 -11 6 C-6.545 5.505 -6.545 5.505 -2 5 C-1.34 3.35 -0.68 1.7 0 0 Z " fill="#346796" transform="translate(106,251)"/>
<path d="M0 0 C0.33 0.66 0.66 1.32 1 2 C3.52733235 2.65555119 3.52733235 2.65555119 6 3 C4.68 3.33 3.36 3.66 2 4 C2 4.66 2 5.32 2 6 C0.02 6.66 -1.96 7.32 -4 8 C-4.33 7.34 -4.66 6.68 -5 6 C-4.01 6 -3.02 6 -2 6 C-1.34 4.02 -0.68 2.04 0 0 Z " fill="#4784B1" transform="translate(319,240)"/>
<path d="M0 0 C0.99 1.485 0.99 1.485 2 3 C1.67 3.66 1.34 4.32 1 5 C2.65 5.33 4.3 5.66 6 6 C5.67 6.99 5.34 7.98 5 9 C3 9.75 3 9.75 1 10 C0 9 0 9 -0.09765625 6.93359375 C-0.08605469 6.10988281 -0.07445312 5.28617188 -0.0625 4.4375 C-0.05347656 3.61121094 -0.04445312 2.78492188 -0.03515625 1.93359375 C-0.02355469 1.29550781 -0.01195312 0.65742188 0 0 Z " fill="#5B94C4" transform="translate(193,226)"/>
<path d="M0 0 C0.33 0.66 0.66 1.32 1 2 C1.99 1.67 2.98 1.34 4 1 C4 1.66 4 2.32 4 3 C4.99 3 5.98 3 7 3 C6.67 4.32 6.34 5.64 6 7 C5.67 6.34 5.34 5.68 5 5 C4.071875 5.309375 4.071875 5.309375 3.125 5.625 C2.42375 5.74875 1.7225 5.8725 1 6 C0.34 5.34 -0.32 4.68 -1 4 C-0.625 1.875 -0.625 1.875 0 0 Z " fill="#105E9C" transform="translate(289,228)"/>
<path d="M0 0 C0.99 1.32 1.98 2.64 3 4 C3.66 3.67 4.32 3.34 5 3 C5 4.32 5 5.64 5 7 C2.36 6.67 -0.28 6.34 -3 6 C-2.67 5.34 -2.34 4.68 -2 4 C-1.34 4 -0.68 4 0 4 C0 2.68 0 1.36 0 0 Z " fill="#2E76A8" transform="translate(358,224)"/>
<path d="M0 0 C1.5 1.1875 1.5 1.1875 3 3 C3.1875 5.6875 3.1875 5.6875 3 8 C2.67 7.34 2.34 6.68 2 6 C0.68 6 -0.64 6 -2 6 C-2.33 4.68 -2.66 3.36 -3 2 C-2.01 1.34 -1.02 0.68 0 0 Z " fill="#105894" transform="translate(204,224)"/>
<path d="M0 0 C-1.26520678 2.53041355 -2.91762486 3.7865356 -5.0625 5.625 C-5.79597656 6.25664062 -6.52945313 6.88828125 -7.28515625 7.5390625 C-7.85105469 8.02117187 -8.41695313 8.50328125 -9 9 C-9 5.06368636 -7.57142871 3.87394974 -5 1 C-3 0 -3 0 0 0 Z " fill="#5580AA" transform="translate(97,202)"/>
<path d="M0 0 C-1 3 -1 3 -3.1875 4.25 C-6.48226898 5.12860506 -8.70800962 4.76557916 -12 4 C-4.28571429 0 -4.28571429 0 0 0 Z " fill="#4A80A4" transform="translate(239,289)"/>
<path d="M0 0 C0.33 0 0.66 0 1 0 C1 1.65 1 3.3 1 5 C-1.88211302 5.96070434 -3.69850044 6.10581883 -6.6875 6.0625 C-7.89986328 6.04896484 -7.89986328 6.04896484 -9.13671875 6.03515625 C-10.05904297 6.01775391 -10.05904297 6.01775391 -11 6 C-11.33 5.34 -11.66 4.68 -12 4 C-6.06 3.505 -6.06 3.505 0 3 C0 2.01 0 1.02 0 0 Z " fill="#688FB2" transform="translate(290,264)"/>
<path d="M0 0 C0.33 0.99 0.66 1.98 1 3 C0.360625 3.268125 -0.27875 3.53625 -0.9375 3.8125 C-3.33131686 4.88667752 -3.33131686 4.88667752 -4 8 C-4.99 7.01 -5.98 6.02 -7 5 C-5.68 4.67 -4.36 4.34 -3 4 C-3.33 3.01 -3.66 2.02 -4 1 C-2.68 1.33 -1.36 1.66 0 2 C0 1.34 0 0.68 0 0 Z " fill="#3E7BAC" transform="translate(432,227)"/>
<path d="M0 0 C0 0.66 0 1.32 0 2 C-0.66 2 -1.32 2 -2 2 C-2 2.66 -2 3.32 -2 4 C-2.66 4 -3.32 4 -4 4 C-4.33 4.66 -4.66 5.32 -5 6 C-5.66 4.02 -6.32 2.04 -7 0 C-3.98968256 -0.93423645 -3.13349732 -1.04449911 0 0 Z " fill="#0F5B93" transform="translate(442,224)"/>
<path d="M0 0 C1.65 0.33 3.3 0.66 5 1 C5.66 2.98 6.32 4.96 7 7 C6.34 7.66 5.68 8.32 5 9 C4.67 7.02 4.34 5.04 4 3 C2.35 3.33 0.7 3.66 -1 4 C-0.67 2.68 -0.34 1.36 0 0 Z " fill="#7797B0" transform="translate(301,218)"/>
<path d="M0 0 C1.4540625 0.0309375 1.4540625 0.0309375 2.9375 0.0625 C2.9375 0.7225 2.9375 1.3825 2.9375 2.0625 C1.2875 2.3925 -0.3625 2.7225 -2.0625 3.0625 C-2.3925 5.7025 -2.7225 8.3425 -3.0625 11.0625 C-3.3925 11.0625 -3.7225 11.0625 -4.0625 11.0625 C-4.08938151 9.41675434 -4.10884123 7.77088587 -4.125 6.125 C-4.13660156 5.20847656 -4.14820312 4.29195313 -4.16015625 3.34765625 C-4.00919455 -0.18484756 -3.60673121 0.07360676 0 0 Z " fill="#5883A7" transform="translate(76.0625,298.9375)"/>
<path d="M0 0 C0.99 0.99 1.98 1.98 3 3 C2.6875 6.6875 2.6875 6.6875 2 10 C0.35 10 -1.3 10 -3 10 C-2.01 9.67 -1.02 9.34 0 9 C0 6.03 0 3.06 0 0 Z " fill="#4885AC" transform="translate(192,239)"/>
<path d="M0 0 C1.32 0.33 2.64 0.66 4 1 C4 2.32 4 3.64 4 5 C2.35 5 0.7 5 -1 5 C-1.33 3.68 -1.66 2.36 -2 1 C-1.67 1.66 -1.34 2.32 -1 3 C-0.67 2.01 -0.34 1.02 0 0 Z " fill="#165B90" transform="translate(364,244)"/>
<path d="M0 0 C0.99 0 1.98 0 3 0 C1.375 6.75 1.375 6.75 -2 9 C-1.41196203 5.97580475 -0.77321882 2.98241547 0 0 Z " fill="#3A6F9D" transform="translate(403,224)"/>
<path d="M0 0 C0.25 2.3125 0.25 2.3125 0 5 C-2 6.8125 -2 6.8125 -4 8 C-4.33 6.02 -4.66 4.04 -5 2 C-2 0 -2 0 0 0 Z " fill="#0E5797" transform="translate(358,223)"/>
<path d="M0 0 C5.26371362 -0.50130606 7.9090934 0.68831371 12 4 C12 4.66 12 5.32 12 6 C10.68 5.67 9.36 5.34 8 5 C8 4.34 8 3.68 8 3 C5.36 2.34 2.72 1.68 0 1 C0 0.67 0 0.34 0 0 Z " fill="#6899B8" transform="translate(324,218)"/>
<path d="M0 0 C2.97 0.495 2.97 0.495 6 1 C5.67 2.65 5.34 4.3 5 6 C3.68 6 2.36 6 1 6 C1 5.01 1 4.02 1 3 C0.67 2.01 0.34 1.02 0 0 Z " fill="#135694" transform="translate(226,286)"/>
<path d="M0 0 C3 3.75 3 3.75 3 6 C1.02 6 -0.96 6 -3 6 C-3 4.35 -3 2.7 -3 1 C-2.01 1.33 -1.02 1.66 0 2 C0 1.34 0 0.68 0 0 Z " fill="#1663A1" transform="translate(208,284)"/>
<path d="M0 0 C2.97 0 5.94 0 9 0 C9 1.32 9 2.64 9 4 C7.35 4 5.7 4 4 4 C4.33 3.01 4.66 2.02 5 1 C3.35 1 1.7 1 0 1 C0 0.67 0 0.34 0 0 Z " fill="#085895" transform="translate(278,275)"/>
<path d="M0 0 C0 3.3 0 6.6 0 10 C-0.66 9.34 -1.32 8.68 -2 8 C-1.67 7.34 -1.34 6.68 -1 6 C-1.99 5.67 -2.98 5.34 -4 5 C-3.625 3.0625 -3.625 3.0625 -3 1 C-1 0 -1 0 0 0 Z " fill="#125D92" transform="translate(222,272)"/>
<path d="M0 0 C1.67542976 0.28604898 3.34385343 0.61781233 5 1 C5 1.66 5 2.32 5 3 C4.34 3 3.68 3 3 3 C3.33 3.99 3.66 4.98 4 6 C3.34 6 2.68 6 2 6 C0 4 0 4 -1 1 C-0.67 0.67 -0.34 0.34 0 0 Z " fill="#125A94" transform="translate(200,231)"/>
<path d="M0 0 C1.9789756 3.63616656 2.5251065 6.88425629 3 11 C1.68 10.67 0.36 10.34 -1 10 C-0.67 9.67 -0.34 9.34 0 9 C0.07179964 7.48071962 0.08392007 5.95832518 0.0625 4.4375 C0.05347656 3.61121094 0.04445312 2.78492188 0.03515625 1.93359375 C0.02355469 1.29550781 0.01195312 0.65742188 0 0 Z " fill="#6B95BC" transform="translate(130,181)"/>
<path d="M0 0 C0.33 0 0.66 0 1 0 C1 1.65 1 3.3 1 5 C0.06027344 5.09087891 0.06027344 5.09087891 -0.8984375 5.18359375 C-1.71570313 5.26738281 -2.53296875 5.35117187 -3.375 5.4375 C-4.18710937 5.51871094 -4.99921875 5.59992188 -5.8359375 5.68359375 C-8.04272805 5.89090114 -8.04272805 5.89090114 -10 7 C-10 5.68 -10 4.36 -10 3 C-6.7 3.33 -3.4 3.66 0 4 C0 2.68 0 1.36 0 0 Z " fill="#1C5D92" transform="translate(287,275)"/>
<path d="M0 0 C0.66 0.99 1.32 1.98 2 3 C1.67 3.99 1.34 4.98 1 6 C0.34 6 -0.32 6 -1 6 C-0.67 6.99 -0.34 7.98 0 9 C-0.33 9.66 -0.66 10.32 -1 11 C-1.66 11 -2.32 11 -3 11 C-2.44894091 7.0507432 -1.61064629 3.65079826 0 0 Z " fill="#638FB6" transform="translate(213,230)"/>
<path d="M0 0 C2.475 0.99 2.475 0.99 5 2 C5 3.32 5 4.64 5 6 C3.68 6.33 2.36 6.66 1 7 C0.67 4.69 0.34 2.38 0 0 Z " fill="#1F67A2" transform="translate(348,229)"/>
<path d="M0 0 C1.2065625 0.0309375 1.2065625 0.0309375 2.4375 0.0625 C1.65375 0.805 0.87 1.5475 0.0625 2.3125 C-2.12754531 4.60683318 -3.38981386 6.18408858 -4.5625 9.0625 C-3.56521739 0.08695652 -3.56521739 0.08695652 0 0 Z " fill="#225787" transform="translate(286.5625,218.9375)"/>
<path d="M0 0 C1.32 0 2.64 0 4 0 C4 1.32 4 2.64 4 4 C2.35 4.33 0.7 4.66 -1 5 C-0.67 3.35 -0.34 1.7 0 0 Z " fill="#135B98" transform="translate(344,244)"/>
<path d="M0 0 C0.66 0 1.32 0 2 0 C2.33 1.98 2.66 3.96 3 6 C1.68 6 0.36 6 -1 6 C-0.67 4.02 -0.34 2.04 0 0 Z " fill="#3870A0" transform="translate(363,233)"/>
<path d="M0 0 C2.3125 -0.3125 2.3125 -0.3125 5 0 C6.875 2.375 6.875 2.375 8 5 C7.67 5.66 7.34 6.32 7 7 C6.34 6.67 5.68 6.34 5 6 C4.375 3.4375 4.375 3.4375 4 1 C2.35 1.33 0.7 1.66 -1 2 C-0.67 1.34 -0.34 0.68 0 0 Z " fill="#7AA1C2" transform="translate(219,218)"/>
<path d="M0 0 C1.32 0.33 2.64 0.66 4 1 C4 1.99 4 2.98 4 4 C2.35 4 0.7 4 -1 4 C-1.33 4.66 -1.66 5.32 -2 6 C-1.49396008 3.83125748 -1.00016187 2.00032373 0 0 Z " fill="#688EB2" transform="translate(121,162)"/>
<path d="M0 0 C0.33 0 0.66 0 1 0 C1 3.96 1 7.92 1 12 C1.66 12.33 2.32 12.66 3 13 C1.35 12.67 -0.3 12.34 -2 12 C-1.67 11.34 -1.34 10.68 -1 10 C-0.77377919 8.29636178 -0.59111527 6.58671299 -0.4375 4.875 C-0.35371094 3.96492188 -0.26992187 3.05484375 -0.18359375 2.1171875 C-0.12300781 1.41851562 -0.06242187 0.71984375 0 0 Z " fill="#5F8DB0" transform="translate(114,286)"/>
<path d="M0 0 C0.99 1.485 0.99 1.485 2 3 C2.66 2.67 3.32 2.34 4 2 C4 3.65 4 5.3 4 7 C2.68 7 1.36 7 0 7 C0 4.69 0 2.38 0 0 Z " fill="#125792" transform="translate(106,279)"/>
<path d="M0 0 C0.33 0.66 0.66 1.32 1 2 C3.64 2 6.28 2 9 2 C8.34 2.66 7.68 3.32 7 4 C3.875 3.625 3.875 3.625 1 3 C0.67 3.66 0.34 4.32 0 5 C-0.5625 3.0625 -0.5625 3.0625 -1 1 C-0.67 0.67 -0.34 0.34 0 0 Z " fill="#1659A5" transform="translate(381,242)"/>
<path d="M0 0 C4.21878192 -0.19622241 7.17010894 0.19769832 11 2 C11.33 1.34 11.66 0.68 12 0 C12 0.99 12 1.98 12 3 C9.36 3 6.72 3 4 3 C4 2.34 4 1.68 4 1 C2.68 0.67 1.36 0.34 0 0 Z " fill="#6694B6" transform="translate(326,225)"/>
<path d="M0 0 C2.62386487 3.06117568 3 3.73173127 3 8 C1.35 7.67 -0.3 7.34 -2 7 C-1.34 6.34 -0.68 5.68 0 5 C0.16687448 2.41645782 0.16687448 2.41645782 0 0 Z " fill="#3F79A8" transform="translate(223,231)"/>
<path d="M0 0 C-3.12180401 0.96661363 -5.52083795 0.98988909 -8.75 0.5625 C-9.94882813 0.40974609 -9.94882813 0.40974609 -11.171875 0.25390625 C-11.77515625 0.17011719 -12.3784375 0.08632812 -13 0 C-13 -0.33 -13 -0.66 -13 -1 C-11.58566794 -1.2236337 -10.16832382 -1.42826476 -8.75 -1.625 C-7.56664062 -1.79902344 -7.56664062 -1.79902344 -6.359375 -1.9765625 C-3.67847541 -2.00319395 -2.27305911 -1.36592084 0 0 Z " fill="#14558B" transform="translate(203,221)"/>
<path d="M0 0 C0 0.33 0 0.66 0 1 C-8.57142857 2.42857143 -8.57142857 2.42857143 -12 0 C-7.74433453 -1.16063604 -4.3164922 -0.76173392 0 0 Z " fill="#6A93B8" transform="translate(236,262)"/>
<path d="M0 0 C2.125 0.9375 2.125 0.9375 4 2 C3.34 2 2.68 2 2 2 C2.33 2.99 2.66 3.98 3 5 C1.68 5.33 0.36 5.66 -1 6 C-1.33 4.35 -1.66 2.7 -2 1 C-1.34 0.67 -0.68 0.34 0 0 Z " fill="#4A87B3" transform="translate(362,242)"/>
<path d="M0 0 C0.66 0.66 1.32 1.32 2 2 C1.01 2 0.02 2 -1 2 C-1.33 2.99 -1.66 3.98 -2 5 C-3.32 4.67 -4.64 4.34 -6 4 C-4 1 -4 1 -2 0.1875 C-1.34 0.125625 -0.68 0.06375 0 0 Z " fill="#124F87" transform="translate(357,237)"/>
</svg>
